<svg width="1440" height="6978" viewBox="0 0 1440 6978" fill="none" xmlns="http://www.w3.org/2000/svg">
<g clip-path="url(#clip0_1_2377)">
<path d="M764.786 6045.91C764.907 6046.46 765.151 6047.01 765.151 6047.62C765.151 6051.95 761.685 6055.43 757.367 6055.43C753.05 6055.43 749.584 6051.95 749.584 6047.62C749.584 6047.01 749.766 6046.52 749.948 6045.91L688.896 6019.02C687.498 6021.03 685.248 6022.43 682.633 6022.43C678.316 6022.43 674.849 6018.95 674.849 6014.62C674.849 6010.84 677.586 6007.79 681.174 6007.12V5923.32C677.586 5922.59 674.849 5919.6 674.849 5915.82C674.849 5911.49 678.316 5908.01 682.633 5908.01C685.248 5908.01 687.498 5909.41 688.896 5911.43L749.948 5884.53C749.827 5883.98 749.584 5883.43 749.584 5882.82C749.584 5879.04 752.32 5875.99 755.908 5875.32V5791.51C752.32 5790.78 749.584 5787.79 749.584 5784.01C749.584 5779.68 753.05 5776.21 757.367 5776.21C761.685 5776.21 765.151 5779.68 765.151 5784.01C765.151 5787.79 762.414 5790.84 758.826 5791.51V5875.32C762.414 5876.05 765.151 5879.04 765.151 5882.82C765.151 5887.15 761.685 5890.63 757.367 5890.63C754.752 5890.63 752.502 5889.22 751.104 5887.21L690.052 5914.11C690.173 5914.66 690.417 5915.21 690.417 5915.82C690.417 5919.6 687.68 5922.65 684.092 5923.32V6007.12C687.68 6007.85 690.417 6010.84 690.417 6014.62C690.417 6015.23 690.234 6015.72 690.052 6016.33L751.104 6043.23C752.502 6041.22 754.752 6039.81 757.367 6039.81C759.982 6039.81 762.232 6041.22 763.63 6043.23L824.682 6016.33C824.561 6015.78 824.318 6015.23 824.318 6014.62C824.318 6010.29 827.784 6006.82 832.101 6006.82C836.418 6006.82 839.885 6010.29 839.885 6014.62C839.885 6015.23 839.702 6015.72 839.52 6016.33L900.572 6043.23C901.97 6041.22 904.22 6039.81 906.835 6039.81C911.153 6039.81 914.619 6043.29 914.619 6047.62C914.619 6051.95 911.153 6055.43 906.835 6055.43C902.518 6055.43 899.052 6051.95 899.052 6047.62C899.052 6047.01 899.234 6046.52 899.416 6045.91L838.364 6019.02C836.966 6021.03 834.716 6022.43 832.101 6022.43C829.486 6022.43 827.236 6021.03 825.838 6019.02L764.786 6045.91ZM975.367 6381.43C976.765 6383.45 979.015 6384.85 981.63 6384.85C984.245 6384.85 986.495 6383.45 987.893 6381.43L1048.95 6408.33C1048.82 6408.88 1048.58 6409.43 1048.58 6410.04C1048.58 6414.37 1052.05 6417.85 1056.36 6417.85C1060.68 6417.85 1064.15 6414.37 1064.15 6410.04C1064.15 6405.71 1060.68 6402.23 1056.36 6402.23C1053.69 6402.23 1051.5 6403.63 1050.1 6405.65L989.049 6378.75C989.17 6378.2 989.414 6377.65 989.414 6377.04C989.414 6372.71 985.947 6369.23 981.63 6369.23C977.313 6369.23 973.846 6372.71 973.846 6377.04C973.846 6377.65 974.029 6378.14 974.211 6378.75L913.159 6405.65C912.004 6404 910.362 6402.9 908.355 6402.48V6318.67C911.943 6317.94 914.679 6314.95 914.679 6311.17C914.679 6306.84 911.213 6303.36 906.896 6303.36C904.281 6303.36 902.031 6304.77 900.633 6306.78L839.581 6279.88C839.702 6279.33 839.945 6278.78 839.945 6278.17C839.945 6274.39 837.209 6271.34 833.621 6270.67V6186.87C837.209 6186.14 839.945 6183.15 839.945 6179.37C839.945 6175.03 836.479 6171.56 832.162 6171.56C827.844 6171.56 824.378 6175.03 824.378 6179.37C824.378 6183.15 827.115 6186.2 830.702 6186.87V6270.67C827.115 6271.4 824.378 6274.39 824.378 6278.17C824.378 6282.5 827.844 6285.98 832.162 6285.98C834.777 6285.98 837.027 6284.58 838.425 6282.56L899.477 6309.46C899.356 6310.01 899.112 6310.56 899.112 6311.17C899.112 6314.95 901.849 6318 905.437 6318.67V6402.48C901.849 6403.21 899.112 6406.2 899.112 6409.98C899.112 6414.31 902.578 6417.78 906.896 6417.78C911.213 6417.78 914.679 6414.31 914.679 6409.98C914.679 6409.37 914.497 6408.88 914.315 6408.27L975.367 6381.37V6381.43ZM153.049 6249.69C154.448 6251.7 156.698 6253.1 159.312 6253.1C163.63 6253.1 167.096 6249.63 167.096 6245.3C167.096 6241.52 164.36 6238.47 160.772 6237.8V6055.12C164.36 6054.39 167.096 6051.4 167.096 6047.62C167.096 6047.01 166.853 6046.52 166.731 6045.91L227.783 6019.02C229.182 6021.03 231.432 6022.43 234.046 6022.43C238.364 6022.43 241.83 6018.95 241.83 6014.62C241.83 6010.84 239.094 6007.79 235.506 6007.12V5923.32C239.094 5922.59 241.83 5919.6 241.83 5915.82C241.83 5911.49 238.364 5908.01 234.046 5908.01C229.729 5908.01 226.263 5911.49 226.263 5915.82C226.263 5919.6 228.999 5922.65 232.587 5923.32V6007.12C228.999 6007.85 226.263 6010.84 226.263 6014.62C226.263 6015.23 226.445 6015.72 226.628 6016.33L165.576 6043.23C164.177 6041.22 161.927 6039.81 159.312 6039.81C154.995 6039.81 151.529 6043.29 151.529 6047.62C151.529 6051.4 154.265 6054.45 157.853 6055.12V6237.8C154.265 6238.53 151.529 6241.52 151.529 6245.3C151.529 6245.91 151.711 6246.4 151.894 6247.01L90.8417 6273.9C89.4431 6271.89 87.1931 6270.49 84.5784 6270.49C80.2609 6270.49 76.7948 6273.96 76.7948 6278.29C76.7948 6282.63 80.2609 6286.1 84.5784 6286.1C88.8958 6286.1 92.3619 6282.63 92.3619 6278.29C92.3619 6277.68 92.1795 6277.2 91.997 6276.59L153.049 6249.69ZM824.378 5751.14C824.378 5755.47 827.844 5758.94 832.162 5758.94C836.479 5758.94 839.945 5755.47 839.945 5751.14C839.945 5747.36 837.209 5744.31 833.621 5743.64V5660.5C837.209 5659.77 839.945 5656.78 839.945 5653C839.945 5652.15 839.702 5651.41 839.459 5650.68L900.633 5623.72C902.031 5625.74 904.281 5627.14 906.896 5627.14C911.213 5627.14 914.679 5623.66 914.679 5619.33C914.679 5615.55 911.943 5612.5 908.355 5611.83V5520.46C908.355 5519.67 907.686 5519 906.896 5519C906.105 5519 905.437 5519.67 905.437 5520.46V5611.77C901.849 5612.5 899.112 5615.49 899.112 5619.27C899.112 5619.88 899.356 5620.37 899.477 5620.98L838.06 5648.06C836.662 5646.35 834.533 5645.19 832.162 5645.19C827.844 5645.19 824.378 5648.67 824.378 5653C824.378 5656.78 827.115 5659.83 830.702 5660.5V5743.64C827.115 5744.37 824.378 5747.36 824.378 5751.14ZM981.691 5594.2C984.306 5594.2 986.555 5592.8 987.954 5590.79L1049.01 5617.69C1048.88 5618.23 1048.64 5618.78 1048.64 5619.39C1048.64 5623.72 1052.11 5627.2 1056.42 5627.2C1060.74 5627.2 1064.21 5623.72 1064.21 5619.39C1064.21 5615.06 1060.74 5611.59 1056.42 5611.59C1053.81 5611.59 1051.56 5612.99 1050.16 5615L989.109 5588.1C989.231 5587.56 989.474 5587.01 989.474 5586.4C989.474 5582.07 986.008 5578.59 981.691 5578.59C977.373 5578.59 973.907 5582.07 973.907 5586.4C973.907 5590.73 977.373 5594.2 981.691 5594.2ZM1272.96 5850.19C1272.96 5854.52 1276.43 5858 1280.75 5858C1283.48 5858 1285.73 5856.53 1287.13 5854.4L1348.06 5881.23C1347.94 5881.78 1347.7 5882.33 1347.7 5882.94C1347.7 5887.27 1351.17 5890.75 1355.48 5890.75C1359.8 5890.75 1363.27 5887.27 1363.27 5882.94C1363.27 5878.61 1359.8 5875.13 1355.48 5875.13C1352.87 5875.13 1350.62 5876.54 1349.22 5878.55L1288.23 5851.65C1288.35 5851.16 1288.53 5850.68 1288.53 5850.13C1288.53 5846.35 1285.8 5843.3 1282.21 5842.63V5758.58C1285.8 5757.85 1288.53 5754.86 1288.53 5751.08C1288.53 5746.75 1285.07 5743.27 1280.75 5743.27C1276.43 5743.27 1272.96 5746.75 1272.96 5751.08C1272.96 5754.86 1275.7 5757.91 1279.29 5758.58V5842.63C1275.7 5843.36 1272.96 5846.35 1272.96 5850.13V5850.19ZM1129.76 5923.38V6007.18C1127.75 6007.61 1126.05 6008.71 1124.96 6010.36L1063.9 5983.46C1064.03 5982.91 1064.27 5982.36 1064.27 5981.75C1064.27 5977.42 1060.8 5973.94 1056.49 5973.94C1052.17 5973.94 1048.7 5977.42 1048.7 5981.75C1048.7 5986.08 1052.17 5989.56 1056.49 5989.56C1059.1 5989.56 1061.35 5988.15 1062.75 5986.14L1123.8 6013.04C1123.68 6013.59 1123.44 6014.14 1123.44 6014.75C1123.44 6019.08 1126.9 6022.55 1131.22 6022.55C1135.54 6022.55 1139 6019.08 1139 6014.75C1139 6010.96 1136.27 6007.92 1132.68 6007.24V5923.44C1136.27 5922.71 1139 5919.72 1139 5915.94C1139 5915.33 1138.82 5914.84 1138.64 5914.23L1199.69 5887.33C1201.09 5889.35 1203.34 5890.75 1205.95 5890.75C1210.27 5890.75 1213.74 5887.27 1213.74 5882.94C1213.74 5878.61 1210.27 5875.13 1205.95 5875.13C1201.64 5875.13 1198.17 5878.61 1198.17 5882.94C1198.17 5883.55 1198.35 5884.04 1198.54 5884.65L1137.48 5911.55C1136.08 5909.53 1133.83 5908.13 1131.22 5908.13C1126.9 5908.13 1123.44 5911.61 1123.44 5915.94C1123.44 5919.72 1126.17 5922.77 1129.76 5923.44V5923.38ZM1431.74 6270.79V6186.99C1435.32 6186.26 1438.06 6183.27 1438.06 6179.49C1438.06 6175.16 1434.59 6171.68 1430.28 6171.68C1427.66 6171.68 1425.41 6173.08 1424.01 6175.1L1362.96 6148.2C1363.08 6147.65 1363.33 6147.1 1363.33 6146.49C1363.33 6142.16 1359.86 6138.68 1355.54 6138.68C1351.23 6138.68 1347.76 6142.16 1347.76 6146.49C1347.76 6150.27 1350.5 6153.32 1354.08 6153.99V6237.8C1350.5 6238.53 1347.76 6241.52 1347.76 6245.3C1347.76 6245.91 1348 6246.4 1348.12 6247.01L1287.07 6273.9C1285.67 6271.89 1283.42 6270.49 1280.81 6270.49C1278.19 6270.49 1275.94 6271.89 1274.55 6273.9L1213.49 6247.01C1213.62 6246.46 1213.86 6245.91 1213.86 6245.3C1213.86 6240.97 1210.39 6237.49 1206.08 6237.49C1201.76 6237.49 1198.29 6240.97 1198.29 6245.3C1198.29 6249.63 1201.76 6253.1 1206.08 6253.1C1208.69 6253.1 1210.94 6251.7 1212.34 6249.69L1273.39 6276.59C1273.27 6277.14 1273.03 6277.68 1273.03 6278.29C1273.03 6282.63 1276.49 6286.1 1280.81 6286.1C1285.13 6286.1 1288.59 6282.63 1288.59 6278.29C1288.59 6277.68 1288.41 6277.2 1288.23 6276.59L1349.28 6249.69C1350.68 6251.7 1352.93 6253.1 1355.54 6253.1C1359.86 6253.1 1363.33 6249.63 1363.33 6245.3C1363.33 6241.52 1360.59 6238.47 1357 6237.8V6153.99C1359.01 6153.57 1360.71 6152.47 1361.81 6150.82L1422.86 6177.72C1422.74 6178.27 1422.49 6178.82 1422.49 6179.43C1422.49 6183.21 1425.23 6186.26 1428.82 6186.93V6270.73C1425.23 6271.46 1422.49 6274.45 1422.49 6278.23C1422.49 6278.84 1422.68 6279.33 1422.86 6279.94L1361.5 6306.96C1360.1 6305.19 1357.98 6303.97 1355.54 6303.97C1351.23 6303.97 1347.76 6307.45 1347.76 6311.78C1347.76 6315.56 1350.5 6318.61 1354.08 6319.28V6402.54C1350.5 6403.27 1347.76 6406.26 1347.76 6410.04C1347.76 6414.37 1351.23 6417.85 1355.54 6417.85C1359.86 6417.85 1363.33 6414.37 1363.33 6410.04C1363.33 6406.26 1360.59 6403.21 1357 6402.54V6319.28C1360.59 6318.55 1363.33 6315.56 1363.33 6311.78C1363.33 6310.99 1363.08 6310.25 1362.9 6309.52L1424.07 6282.56C1425.47 6284.58 1427.72 6285.98 1430.34 6285.98C1434.66 6285.98 1438.12 6282.5 1438.12 6278.17C1438.12 6274.39 1435.39 6271.34 1431.8 6270.67L1431.74 6270.79ZM1206.01 6501.16C1201.7 6501.16 1198.23 6504.64 1198.23 6508.97C1198.23 6509.58 1198.41 6510.07 1198.6 6510.68L1062.14 6570.81C1060.74 6569.29 1058.74 6568.31 1056.49 6568.31C1052.17 6568.31 1048.7 6571.79 1048.7 6576.12C1048.7 6579.9 1051.44 6582.95 1055.03 6583.62V6666.27C1051.44 6667 1048.7 6669.99 1048.7 6673.77C1048.7 6678.1 1052.17 6681.58 1056.49 6681.58C1060.8 6681.58 1064.27 6678.1 1064.27 6673.77C1064.27 6669.99 1061.53 6666.94 1057.94 6666.27V6583.62C1061.53 6582.89 1064.27 6579.9 1064.27 6576.12C1064.27 6575.15 1064.03 6574.23 1063.72 6573.32L1199.75 6513.36C1201.15 6515.37 1203.4 6516.78 1206.01 6516.78C1210.33 6516.78 1213.8 6513.3 1213.8 6508.97C1213.8 6504.64 1210.33 6501.16 1206.01 6501.16ZM1355.54 6665.9C1352.93 6665.9 1350.68 6667.3 1349.28 6669.32L1288.23 6642.42C1288.35 6641.87 1288.59 6641.32 1288.59 6640.71C1288.59 6636.38 1285.13 6632.9 1280.81 6632.9C1276.49 6632.9 1273.03 6636.38 1273.03 6640.71C1273.03 6645.04 1276.49 6648.52 1280.81 6648.52C1283.42 6648.52 1285.67 6647.12 1287.07 6645.1L1348.12 6672C1348 6672.55 1347.76 6673.1 1347.76 6673.71C1347.76 6678.04 1351.23 6681.52 1355.54 6681.52C1359.86 6681.52 1363.33 6678.04 1363.33 6673.71C1363.33 6669.38 1359.86 6665.9 1355.54 6665.9ZM1355.54 6929.51C1351.23 6929.51 1347.76 6932.99 1347.76 6937.32C1347.76 6937.93 1347.94 6938.42 1348.12 6939.03L1287.07 6965.92C1285.67 6963.91 1283.42 6962.51 1280.81 6962.51C1276.49 6962.51 1273.03 6965.98 1273.03 6970.31C1273.03 6974.65 1276.49 6978.12 1280.81 6978.12C1285.13 6978.12 1288.59 6974.65 1288.59 6970.31C1288.59 6969.7 1288.35 6969.22 1288.23 6968.61L1349.28 6941.71C1350.68 6943.72 1352.93 6945.13 1355.54 6945.13C1359.86 6945.13 1363.33 6941.65 1363.33 6937.32C1363.33 6932.99 1359.86 6929.51 1355.54 6929.51ZM1131.28 6797.71C1126.96 6797.71 1123.5 6801.18 1123.5 6805.51C1123.5 6806.12 1123.74 6806.61 1123.86 6807.22L1062.81 6834.12C1061.41 6832.11 1059.16 6830.7 1056.55 6830.7C1053.93 6830.7 1051.68 6832.11 1050.28 6834.12L989.231 6807.22C989.353 6806.67 989.596 6806.12 989.596 6805.51C989.596 6801.18 986.13 6797.71 981.812 6797.71C977.495 6797.71 974.029 6801.18 974.029 6805.51C974.029 6809.84 977.495 6813.32 981.812 6813.32C984.427 6813.32 986.677 6811.92 988.076 6809.9L1049.13 6836.8C1049.01 6837.35 1048.76 6837.9 1048.76 6838.51C1048.76 6842.84 1052.23 6846.32 1056.55 6846.32C1060.86 6846.32 1064.33 6842.84 1064.33 6838.51C1064.33 6837.9 1064.15 6837.41 1063.97 6836.8L1125.02 6809.9C1126.42 6811.92 1128.67 6813.32 1131.28 6813.32C1135.6 6813.32 1139.06 6809.84 1139.06 6805.51C1139.06 6801.18 1135.6 6797.71 1131.28 6797.71ZM684.153 6813.02V6897.79C687.741 6898.53 690.477 6901.52 690.477 6905.3C690.477 6909.63 687.011 6913.1 682.694 6913.1C679.714 6913.1 677.221 6911.4 675.944 6908.96L615.378 6935.67C615.5 6936.22 615.743 6936.77 615.743 6937.38C615.743 6941.71 612.277 6945.19 607.96 6945.19C603.642 6945.19 600.176 6941.71 600.176 6937.38C600.176 6936.77 600.359 6936.28 600.541 6935.67L539.185 6908.65C537.786 6910.42 535.658 6911.64 533.226 6911.64C528.908 6911.64 525.442 6908.16 525.442 6903.83C525.442 6900.05 528.179 6897 531.766 6896.33V6813.08C529.76 6812.65 528.057 6811.55 526.962 6809.9L465.91 6836.8C466.032 6837.35 466.275 6837.9 466.275 6838.51C466.275 6842.84 462.809 6846.32 458.492 6846.32C454.174 6846.32 450.708 6842.84 450.708 6838.51C450.708 6837.9 450.891 6837.41 451.073 6836.8L390.021 6809.9C388.622 6811.92 386.372 6813.32 383.758 6813.32C379.44 6813.32 375.974 6809.84 375.974 6805.51C375.974 6801.73 378.711 6798.68 382.298 6798.01V6714.76C378.711 6714.02 375.974 6711.04 375.974 6707.25C375.974 6702.92 379.44 6699.45 383.758 6699.45C388.075 6699.45 391.541 6702.92 391.541 6707.25C391.541 6711.04 388.805 6714.09 385.217 6714.76V6798.01C388.805 6798.74 391.541 6801.73 391.541 6805.51C391.541 6806.12 391.359 6806.61 391.176 6807.22L452.228 6834.12C453.627 6832.11 455.877 6830.7 458.492 6830.7C461.107 6830.7 463.356 6832.11 464.755 6834.12L525.807 6807.22C525.685 6806.67 525.442 6806.12 525.442 6805.51C525.442 6801.73 528.179 6798.68 531.766 6798.01V6714.21C528.179 6713.48 525.442 6710.49 525.442 6706.71C525.442 6702.38 528.908 6698.9 533.226 6698.9C537.543 6698.9 541.009 6702.38 541.009 6706.71C541.009 6710.49 538.273 6713.54 534.685 6714.21V6798.01C538.273 6798.74 541.009 6801.73 541.009 6805.51C541.009 6806.12 540.827 6806.61 540.644 6807.22L601.697 6834.12C603.095 6832.11 605.345 6830.7 607.96 6830.7C610.575 6830.7 612.825 6832.11 614.223 6834.12L675.275 6807.22C675.154 6806.67 674.91 6806.12 674.91 6805.51C674.91 6801.18 678.376 6797.71 682.694 6797.71C687.011 6797.71 690.477 6801.18 690.477 6805.51C690.477 6809.29 687.741 6812.34 684.153 6813.02ZM681.234 6813.02C679.228 6812.59 677.525 6811.49 676.431 6809.84L615.378 6836.74C615.5 6837.29 615.743 6837.84 615.743 6838.45C615.743 6842.78 612.277 6846.26 607.96 6846.26C603.642 6846.26 600.176 6842.78 600.176 6838.45C600.176 6837.84 600.359 6837.35 600.541 6836.74L539.489 6809.84C538.334 6811.49 536.692 6812.59 534.685 6813.02V6896.27C538.273 6897 541.009 6899.99 541.009 6903.77C541.009 6904.57 540.766 6905.3 540.584 6906.03L601.757 6932.99C603.156 6930.97 605.406 6929.57 608.021 6929.57C610.635 6929.57 612.885 6930.97 614.284 6932.99L675.154 6906.15C675.154 6906.15 674.971 6905.6 674.971 6905.3C674.971 6901.52 677.708 6898.47 681.295 6897.79V6813.02H681.234ZM690.477 6541.9C690.477 6537.57 687.011 6534.1 682.694 6534.1C680.079 6534.1 677.829 6535.5 676.431 6537.51L615.378 6510.61C615.5 6510.07 615.743 6509.52 615.743 6508.91C615.743 6505.13 613.007 6502.08 609.419 6501.41V6417.6C613.007 6416.87 615.743 6413.88 615.743 6410.1C615.743 6405.77 612.277 6402.29 607.96 6402.29C603.642 6402.29 600.176 6405.77 600.176 6410.1C600.176 6413.88 602.913 6416.93 606.5 6417.6V6501.41C602.913 6502.14 600.176 6505.13 600.176 6508.91C600.176 6513.24 603.642 6516.71 607.96 6516.71C610.575 6516.71 612.825 6515.31 614.223 6513.3L675.275 6540.2C675.154 6540.75 674.91 6541.29 674.91 6541.9C674.91 6545.69 677.647 6548.74 681.234 6549.41V6633.21C677.647 6633.94 674.91 6636.93 674.91 6640.71C674.91 6641.32 675.093 6641.81 675.275 6642.42L614.223 6669.32C612.825 6667.3 610.575 6665.9 607.96 6665.9C603.642 6665.9 600.176 6669.38 600.176 6673.71C600.176 6678.04 603.642 6681.52 607.96 6681.52C612.277 6681.52 615.743 6678.04 615.743 6673.71C615.743 6673.1 615.5 6672.61 615.378 6672L676.431 6645.1C677.829 6647.12 680.079 6648.52 682.694 6648.52C687.011 6648.52 690.477 6645.04 690.477 6640.71C690.477 6636.93 687.741 6633.88 684.153 6633.21V6549.41C687.741 6548.67 690.477 6545.69 690.477 6541.9ZM234.168 6962.45C231.553 6962.45 229.303 6963.85 227.905 6965.86L166.853 6938.96C166.974 6938.42 167.218 6937.87 167.218 6937.26C167.218 6932.93 163.751 6929.45 159.434 6929.45C155.117 6929.45 151.65 6932.93 151.65 6937.26C151.65 6941.59 155.117 6945.06 159.434 6945.06C162.049 6945.06 164.299 6943.66 165.697 6941.65L226.749 6968.55C226.628 6969.1 226.385 6969.64 226.385 6970.25C226.385 6974.58 229.851 6978.06 234.168 6978.06C238.485 6978.06 241.952 6974.58 241.952 6970.25C241.952 6965.92 238.485 6962.45 234.168 6962.45ZM84.6392 6534.16C82.0244 6534.16 79.7745 6535.56 78.3759 6537.57L17.3238 6510.68C17.4454 6510.13 17.6887 6509.58 17.6887 6508.97C17.6887 6505.19 14.9523 6502.14 11.3646 6501.47V6318.79C14.9523 6318.06 17.6887 6315.07 17.6887 6311.29C17.6887 6306.96 14.2226 6303.48 9.90515 6303.48C5.58772 6303.48 2.12162 6306.96 2.12162 6311.29C2.12162 6315.07 4.85801 6318.12 8.44573 6318.79V6501.47C4.85801 6502.2 2.12162 6505.19 2.12162 6508.97C2.12162 6513.3 5.58772 6516.78 9.90515 6516.78C12.5199 6516.78 14.7698 6515.37 16.1685 6513.36L77.2205 6540.26C77.0989 6540.81 76.8557 6541.36 76.8557 6541.97C76.8557 6546.3 80.3217 6549.77 84.6392 6549.77C88.9566 6549.77 92.4227 6546.3 92.4227 6541.97C92.4227 6537.63 88.9566 6534.16 84.6392 6534.16ZM316.686 6410.16C316.686 6405.83 313.22 6402.35 308.902 6402.35C304.585 6402.35 301.119 6405.83 301.119 6410.16C301.119 6413.94 303.855 6416.99 307.443 6417.66V6501.47C303.855 6502.2 301.119 6505.19 301.119 6508.97C301.119 6509.58 301.301 6510.07 301.483 6510.68L240.431 6537.57C239.033 6535.56 236.783 6534.16 234.168 6534.16C229.851 6534.16 226.385 6537.63 226.385 6541.97C226.385 6545.75 229.121 6548.8 232.709 6549.47V6633.27C229.121 6634 226.385 6636.99 226.385 6640.77C226.385 6645.1 229.851 6648.58 234.168 6648.58C238.485 6648.58 241.952 6645.1 241.952 6640.77C241.952 6636.99 239.215 6633.94 235.627 6633.27V6549.47C239.215 6548.74 241.952 6545.75 241.952 6541.97C241.952 6541.36 241.769 6540.87 241.587 6540.26L302.639 6513.36C304.037 6515.37 306.287 6516.78 308.902 6516.78C313.22 6516.78 316.686 6513.3 316.686 6508.97C316.686 6505.19 313.949 6502.14 310.361 6501.47V6417.66C313.949 6416.93 316.686 6413.94 316.686 6410.16ZM600.176 6146.55C600.176 6147.16 600.359 6147.65 600.541 6148.26L539.489 6175.16C538.09 6173.14 535.841 6171.74 533.226 6171.74C530.611 6171.74 528.361 6173.14 526.962 6175.16L465.91 6148.26C466.032 6147.71 466.275 6147.16 466.275 6146.55C466.275 6142.22 462.809 6138.74 458.492 6138.74C454.174 6138.74 450.708 6142.22 450.708 6146.55C450.708 6150.88 454.174 6154.36 458.492 6154.36C461.107 6154.36 463.356 6152.96 464.755 6150.94L525.807 6177.84C525.685 6178.39 525.442 6178.94 525.442 6179.55C525.442 6183.88 528.908 6187.36 533.226 6187.36C537.543 6187.36 541.009 6183.88 541.009 6179.55C541.009 6178.94 540.827 6178.45 540.644 6177.84L601.697 6150.94C603.095 6152.96 605.345 6154.36 607.96 6154.36C612.277 6154.36 615.743 6150.88 615.743 6146.55C615.743 6142.77 613.007 6139.72 609.419 6139.05V6055.25C613.007 6054.51 615.743 6051.52 615.743 6047.74C615.743 6043.41 612.277 6039.94 607.96 6039.94C603.642 6039.94 600.176 6043.41 600.176 6047.74C600.176 6051.52 602.913 6054.57 606.5 6055.25V6139.05C602.913 6139.78 600.176 6142.77 600.176 6146.55ZM301.119 5784.13C301.119 5779.8 304.585 5776.33 308.902 5776.33C311.517 5776.33 313.767 5777.73 315.165 5779.74L376.217 5752.84C376.096 5752.3 375.853 5751.75 375.853 5751.14C375.853 5747.36 378.589 5744.31 382.177 5743.64V5660.32C378.589 5659.59 375.853 5656.6 375.853 5652.82C375.853 5648.49 379.319 5645.01 383.636 5645.01C386.129 5645.01 388.197 5646.23 389.656 5648.06L450.951 5621.04C450.83 5620.49 450.587 5619.94 450.587 5619.33C450.587 5615 454.053 5611.53 458.37 5611.53C462.688 5611.53 466.154 5615 466.154 5619.33C466.154 5623.11 463.417 5626.16 459.83 5626.83V5711C463.417 5711.74 466.154 5714.72 466.154 5718.51C466.154 5722.84 462.688 5726.31 458.37 5726.31C455.634 5726.31 453.323 5724.79 451.924 5722.59L391.055 5749.43C391.176 5749.98 391.42 5750.53 391.42 5751.14C391.42 5751.75 391.237 5752.24 391.055 5752.84L452.107 5779.74C453.505 5777.73 455.755 5776.33 458.37 5776.33C460.985 5776.33 463.235 5777.73 464.633 5779.74L525.685 5752.84C525.564 5752.3 525.321 5751.75 525.321 5751.14C525.321 5746.81 528.787 5743.33 533.104 5743.33C537.422 5743.33 540.888 5746.81 540.888 5751.14C540.888 5754.92 538.151 5757.97 534.564 5758.64V5842.44C538.151 5843.17 540.888 5846.16 540.888 5849.94C540.888 5854.28 537.422 5857.75 533.104 5857.75C528.787 5857.75 525.321 5854.28 525.321 5849.94C525.321 5846.16 528.057 5843.11 531.645 5842.44V5758.64C529.638 5758.21 527.935 5757.11 526.841 5755.47L465.789 5782.37C465.91 5782.91 466.154 5783.46 466.154 5784.07C466.154 5788.4 462.688 5791.88 458.37 5791.88C454.053 5791.88 450.587 5788.4 450.587 5784.07C450.587 5783.46 450.769 5782.98 450.951 5782.37L389.899 5755.47C388.501 5757.48 386.251 5758.88 383.636 5758.88C381.021 5758.88 378.771 5757.48 377.373 5755.47L316.321 5782.37C316.442 5782.91 316.686 5783.46 316.686 5784.07C316.686 5788.4 313.22 5791.88 308.902 5791.88C304.585 5791.88 301.119 5788.4 301.119 5784.07V5784.13ZM385.096 5743.7C387.102 5744.12 388.805 5745.22 389.899 5746.87L450.891 5719.97C450.83 5719.48 450.587 5719.12 450.587 5718.63C450.587 5714.85 453.323 5711.8 456.911 5711.13V5626.96C454.904 5626.53 453.201 5625.43 452.107 5623.78L390.994 5650.74C391.176 5651.41 391.42 5652.15 391.42 5652.88C391.42 5656.66 388.683 5659.71 385.096 5660.38V5743.7ZM9.78353 5627.08C14.101 5627.08 17.5671 5623.6 17.5671 5619.27C17.5671 5618.66 17.3846 5618.17 17.2022 5617.56L78.3759 5590.61C79.7745 5592.5 81.9636 5593.84 84.5176 5593.84C87.0715 5593.84 89.2606 5592.5 90.6592 5590.61L151.833 5617.56C151.711 5618.11 151.468 5618.66 151.468 5619.27C151.468 5623.6 154.934 5627.08 159.252 5627.08C163.569 5627.08 167.035 5623.6 167.035 5619.27C167.035 5615.49 164.299 5612.44 160.711 5611.77V5520.46C160.711 5519.67 160.042 5519 159.252 5519C158.461 5519 157.792 5519.67 157.792 5520.46V5611.77C155.785 5612.2 154.083 5613.29 152.988 5614.94L91.8754 5588.04C92.0578 5587.43 92.2403 5586.82 92.2403 5586.15C92.2403 5581.82 88.7742 5578.35 84.4567 5578.35C80.1393 5578.35 76.6732 5581.82 76.6732 5586.15C76.6732 5586.82 76.9165 5587.43 77.0381 5588.04L16.0468 5614.94C14.6482 5612.93 12.3983 5611.53 9.78353 5611.53C5.4661 5611.53 2 5615 2 5619.33C2 5623.66 5.4661 5627.14 9.78353 5627.14V5627.08ZM452.046 6249.63C453.445 6251.64 455.695 6253.04 458.309 6253.04C462.627 6253.04 466.093 6249.57 466.093 6245.24C466.093 6240.91 462.627 6237.43 458.309 6237.43C453.992 6237.43 450.526 6240.91 450.526 6245.24C450.526 6245.85 450.708 6246.33 450.891 6246.94L315.105 6306.78C313.706 6304.77 311.456 6303.36 308.841 6303.36C304.524 6303.36 301.058 6306.84 301.058 6311.17C301.058 6315.5 304.524 6318.98 308.841 6318.98C313.159 6318.98 316.625 6315.5 316.625 6311.17C316.625 6310.56 316.382 6310.07 316.26 6309.46L452.046 6249.63Z" fill="#1C1C1C"/>
</g>
<g clip-path="url(#clip1_1_2377)">
<path d="M762.786 2580.91C762.907 2581.46 763.151 2582.01 763.151 2582.62C763.151 2586.95 759.685 2590.43 755.367 2590.43C751.05 2590.43 747.584 2586.95 747.584 2582.62C747.584 2582.01 747.766 2581.52 747.948 2580.91L686.896 2554.02C685.498 2556.03 683.248 2557.43 680.633 2557.43C676.316 2557.43 672.849 2553.95 672.849 2549.62C672.849 2545.84 675.586 2542.79 679.174 2542.12V2458.32C675.586 2457.59 672.849 2454.6 672.849 2450.82C672.849 2446.49 676.316 2443.01 680.633 2443.01C683.248 2443.01 685.498 2444.41 686.896 2446.43L747.948 2419.53C747.827 2418.98 747.584 2418.43 747.584 2417.82C747.584 2414.04 750.32 2410.99 753.908 2410.32V2326.51C750.32 2325.78 747.584 2322.79 747.584 2319.01C747.584 2314.68 751.05 2311.21 755.367 2311.21C759.685 2311.21 763.151 2314.68 763.151 2319.01C763.151 2322.79 760.414 2325.84 756.826 2326.51V2410.32C760.414 2411.05 763.151 2414.04 763.151 2417.82C763.151 2422.15 759.685 2425.63 755.367 2425.63C752.752 2425.63 750.502 2424.22 749.104 2422.21L688.052 2449.11C688.173 2449.66 688.417 2450.21 688.417 2450.82C688.417 2454.6 685.68 2457.65 682.092 2458.32V2542.12C685.68 2542.85 688.417 2545.84 688.417 2549.62C688.417 2550.23 688.234 2550.72 688.052 2551.33L749.104 2578.23C750.502 2576.22 752.752 2574.81 755.367 2574.81C757.982 2574.81 760.232 2576.22 761.63 2578.23L822.682 2551.33C822.561 2550.78 822.318 2550.23 822.318 2549.62C822.318 2545.29 825.784 2541.82 830.101 2541.82C834.418 2541.82 837.885 2545.29 837.885 2549.62C837.885 2550.23 837.702 2550.72 837.52 2551.33L898.572 2578.23C899.97 2576.22 902.22 2574.81 904.835 2574.81C909.153 2574.81 912.619 2578.29 912.619 2582.62C912.619 2586.95 909.153 2590.43 904.835 2590.43C900.518 2590.43 897.052 2586.95 897.052 2582.62C897.052 2582.01 897.234 2581.52 897.416 2580.91L836.364 2554.02C834.966 2556.03 832.716 2557.43 830.101 2557.43C827.486 2557.43 825.236 2556.03 823.838 2554.02L762.786 2580.91ZM973.367 2916.43C974.765 2918.45 977.015 2919.85 979.63 2919.85C982.245 2919.85 984.495 2918.45 985.893 2916.43L1046.95 2943.33C1046.82 2943.88 1046.58 2944.43 1046.58 2945.04C1046.58 2949.37 1050.05 2952.85 1054.36 2952.85C1058.68 2952.85 1062.15 2949.37 1062.15 2945.04C1062.15 2940.71 1058.68 2937.23 1054.36 2937.23C1051.69 2937.23 1049.5 2938.63 1048.1 2940.65L987.049 2913.75C987.17 2913.2 987.414 2912.65 987.414 2912.04C987.414 2907.71 983.947 2904.23 979.63 2904.23C975.313 2904.23 971.846 2907.71 971.846 2912.04C971.846 2912.65 972.029 2913.14 972.211 2913.75L911.159 2940.65C910.004 2939 908.362 2937.9 906.355 2937.48V2853.67C909.943 2852.94 912.679 2849.95 912.679 2846.17C912.679 2841.84 909.213 2838.36 904.896 2838.36C902.281 2838.36 900.031 2839.77 898.633 2841.78L837.581 2814.88C837.702 2814.33 837.945 2813.78 837.945 2813.17C837.945 2809.39 835.209 2806.34 831.621 2805.67V2721.87C835.209 2721.14 837.945 2718.15 837.945 2714.37C837.945 2710.03 834.479 2706.56 830.162 2706.56C825.844 2706.56 822.378 2710.03 822.378 2714.37C822.378 2718.15 825.115 2721.2 828.702 2721.87V2805.67C825.115 2806.4 822.378 2809.39 822.378 2813.17C822.378 2817.5 825.844 2820.98 830.162 2820.98C832.777 2820.98 835.027 2819.58 836.425 2817.56L897.477 2844.46C897.356 2845.01 897.112 2845.56 897.112 2846.17C897.112 2849.95 899.849 2853 903.437 2853.67V2937.48C899.849 2938.21 897.112 2941.2 897.112 2944.98C897.112 2949.31 900.578 2952.78 904.896 2952.78C909.213 2952.78 912.679 2949.31 912.679 2944.98C912.679 2944.37 912.497 2943.88 912.315 2943.27L973.367 2916.37V2916.43ZM151.049 2784.69C152.448 2786.7 154.698 2788.1 157.312 2788.1C161.63 2788.1 165.096 2784.63 165.096 2780.3C165.096 2776.52 162.36 2773.47 158.772 2772.8V2590.12C162.36 2589.39 165.096 2586.4 165.096 2582.62C165.096 2582.01 164.853 2581.52 164.731 2580.91L225.783 2554.02C227.182 2556.03 229.432 2557.43 232.046 2557.43C236.364 2557.43 239.83 2553.95 239.83 2549.62C239.83 2545.84 237.094 2542.79 233.506 2542.12V2458.32C237.094 2457.59 239.83 2454.6 239.83 2450.82C239.83 2446.49 236.364 2443.01 232.046 2443.01C227.729 2443.01 224.263 2446.49 224.263 2450.82C224.263 2454.6 226.999 2457.65 230.587 2458.32V2542.12C226.999 2542.85 224.263 2545.84 224.263 2549.62C224.263 2550.23 224.445 2550.72 224.628 2551.33L163.576 2578.23C162.177 2576.22 159.927 2574.81 157.312 2574.81C152.995 2574.81 149.529 2578.29 149.529 2582.62C149.529 2586.4 152.265 2589.45 155.853 2590.12V2772.8C152.265 2773.53 149.529 2776.52 149.529 2780.3C149.529 2780.91 149.711 2781.4 149.894 2782.01L88.8417 2808.9C87.4431 2806.89 85.1931 2805.49 82.5784 2805.49C78.2609 2805.49 74.7948 2808.96 74.7948 2813.29C74.7948 2817.63 78.2609 2821.1 82.5784 2821.1C86.8958 2821.1 90.3619 2817.63 90.3619 2813.29C90.3619 2812.68 90.1795 2812.2 89.997 2811.59L151.049 2784.69ZM822.378 2286.14C822.378 2290.47 825.844 2293.94 830.162 2293.94C834.479 2293.94 837.945 2290.47 837.945 2286.14C837.945 2282.36 835.209 2279.31 831.621 2278.64V2195.5C835.209 2194.77 837.945 2191.78 837.945 2188C837.945 2187.15 837.702 2186.41 837.459 2185.68L898.633 2158.72C900.031 2160.74 902.281 2162.14 904.896 2162.14C909.213 2162.14 912.679 2158.66 912.679 2154.33C912.679 2150.55 909.943 2147.5 906.355 2146.83V2055.46C906.355 2054.67 905.686 2054 904.896 2054C904.105 2054 903.437 2054.67 903.437 2055.46V2146.77C899.849 2147.5 897.112 2150.49 897.112 2154.27C897.112 2154.88 897.356 2155.37 897.477 2155.98L836.06 2183.06C834.662 2181.35 832.533 2180.19 830.162 2180.19C825.844 2180.19 822.378 2183.67 822.378 2188C822.378 2191.78 825.115 2194.83 828.702 2195.5V2278.64C825.115 2279.37 822.378 2282.36 822.378 2286.14ZM979.691 2129.2C982.306 2129.2 984.555 2127.8 985.954 2125.79L1047.01 2152.69C1046.88 2153.23 1046.64 2153.78 1046.64 2154.39C1046.64 2158.72 1050.11 2162.2 1054.42 2162.2C1058.74 2162.2 1062.21 2158.72 1062.21 2154.39C1062.21 2150.06 1058.74 2146.59 1054.42 2146.59C1051.81 2146.59 1049.56 2147.99 1048.16 2150L987.109 2123.1C987.231 2122.56 987.474 2122.01 987.474 2121.4C987.474 2117.07 984.008 2113.59 979.691 2113.59C975.373 2113.59 971.907 2117.07 971.907 2121.4C971.907 2125.73 975.373 2129.2 979.691 2129.2ZM1270.96 2385.19C1270.96 2389.52 1274.43 2393 1278.75 2393C1281.48 2393 1283.73 2391.53 1285.13 2389.4L1346.06 2416.23C1345.94 2416.78 1345.7 2417.33 1345.7 2417.94C1345.7 2422.27 1349.17 2425.75 1353.48 2425.75C1357.8 2425.75 1361.27 2422.27 1361.27 2417.94C1361.27 2413.61 1357.8 2410.13 1353.48 2410.13C1350.87 2410.13 1348.62 2411.54 1347.22 2413.55L1286.23 2386.65C1286.35 2386.16 1286.53 2385.68 1286.53 2385.13C1286.53 2381.35 1283.8 2378.3 1280.21 2377.63V2293.58C1283.8 2292.85 1286.53 2289.86 1286.53 2286.08C1286.53 2281.75 1283.07 2278.27 1278.75 2278.27C1274.43 2278.27 1270.96 2281.75 1270.96 2286.08C1270.96 2289.86 1273.7 2292.91 1277.29 2293.58V2377.63C1273.7 2378.36 1270.96 2381.35 1270.96 2385.13V2385.19ZM1127.76 2458.38V2542.18C1125.75 2542.61 1124.05 2543.71 1122.96 2545.36L1061.9 2518.46C1062.03 2517.91 1062.27 2517.36 1062.27 2516.75C1062.27 2512.42 1058.8 2508.94 1054.49 2508.94C1050.17 2508.94 1046.7 2512.42 1046.7 2516.75C1046.7 2521.08 1050.17 2524.56 1054.49 2524.56C1057.1 2524.56 1059.35 2523.15 1060.75 2521.14L1121.8 2548.04C1121.68 2548.59 1121.44 2549.14 1121.44 2549.75C1121.44 2554.08 1124.9 2557.55 1129.22 2557.55C1133.54 2557.55 1137 2554.08 1137 2549.75C1137 2545.96 1134.27 2542.92 1130.68 2542.24V2458.44C1134.27 2457.71 1137 2454.72 1137 2450.94C1137 2450.33 1136.82 2449.84 1136.64 2449.23L1197.69 2422.33C1199.09 2424.35 1201.34 2425.75 1203.95 2425.75C1208.27 2425.75 1211.74 2422.27 1211.74 2417.94C1211.74 2413.61 1208.27 2410.13 1203.95 2410.13C1199.64 2410.13 1196.17 2413.61 1196.17 2417.94C1196.17 2418.55 1196.35 2419.04 1196.54 2419.65L1135.48 2446.55C1134.08 2444.53 1131.83 2443.13 1129.22 2443.13C1124.9 2443.13 1121.44 2446.61 1121.44 2450.94C1121.44 2454.72 1124.17 2457.77 1127.76 2458.44V2458.38ZM1429.74 2805.79V2721.99C1433.32 2721.26 1436.06 2718.27 1436.06 2714.49C1436.06 2710.16 1432.59 2706.68 1428.28 2706.68C1425.66 2706.68 1423.41 2708.08 1422.01 2710.1L1360.96 2683.2C1361.08 2682.65 1361.33 2682.1 1361.33 2681.49C1361.33 2677.16 1357.86 2673.68 1353.54 2673.68C1349.23 2673.68 1345.76 2677.16 1345.76 2681.49C1345.76 2685.27 1348.5 2688.32 1352.08 2688.99V2772.8C1348.5 2773.53 1345.76 2776.52 1345.76 2780.3C1345.76 2780.91 1346 2781.4 1346.12 2782.01L1285.07 2808.9C1283.67 2806.89 1281.42 2805.49 1278.81 2805.49C1276.19 2805.49 1273.94 2806.89 1272.55 2808.9L1211.49 2782.01C1211.62 2781.46 1211.86 2780.91 1211.86 2780.3C1211.86 2775.97 1208.39 2772.49 1204.08 2772.49C1199.76 2772.49 1196.29 2775.97 1196.29 2780.3C1196.29 2784.63 1199.76 2788.1 1204.08 2788.1C1206.69 2788.1 1208.94 2786.7 1210.34 2784.69L1271.39 2811.59C1271.27 2812.14 1271.03 2812.68 1271.03 2813.29C1271.03 2817.63 1274.49 2821.1 1278.81 2821.1C1283.13 2821.1 1286.59 2817.63 1286.59 2813.29C1286.59 2812.68 1286.41 2812.2 1286.23 2811.59L1347.28 2784.69C1348.68 2786.7 1350.93 2788.1 1353.54 2788.1C1357.86 2788.1 1361.33 2784.63 1361.33 2780.3C1361.33 2776.52 1358.59 2773.47 1355 2772.8V2688.99C1357.01 2688.57 1358.71 2687.47 1359.81 2685.82L1420.86 2712.72C1420.74 2713.27 1420.49 2713.82 1420.49 2714.43C1420.49 2718.21 1423.23 2721.26 1426.82 2721.93V2805.73C1423.23 2806.46 1420.49 2809.45 1420.49 2813.23C1420.49 2813.84 1420.68 2814.33 1420.86 2814.94L1359.5 2841.96C1358.1 2840.19 1355.98 2838.97 1353.54 2838.97C1349.23 2838.97 1345.76 2842.45 1345.76 2846.78C1345.76 2850.56 1348.5 2853.61 1352.08 2854.28V2937.54C1348.5 2938.27 1345.76 2941.26 1345.76 2945.04C1345.76 2949.37 1349.23 2952.85 1353.54 2952.85C1357.86 2952.85 1361.33 2949.37 1361.33 2945.04C1361.33 2941.26 1358.59 2938.21 1355 2937.54V2854.28C1358.59 2853.55 1361.33 2850.56 1361.33 2846.78C1361.33 2845.99 1361.08 2845.25 1360.9 2844.52L1422.07 2817.56C1423.47 2819.58 1425.72 2820.98 1428.34 2820.98C1432.66 2820.98 1436.12 2817.5 1436.12 2813.17C1436.12 2809.39 1433.39 2806.34 1429.8 2805.67L1429.74 2805.79ZM1204.01 3036.16C1199.7 3036.16 1196.23 3039.64 1196.23 3043.97C1196.23 3044.58 1196.41 3045.07 1196.6 3045.68L1060.14 3105.81C1058.74 3104.29 1056.74 3103.31 1054.49 3103.31C1050.17 3103.31 1046.7 3106.79 1046.7 3111.12C1046.7 3114.9 1049.44 3117.95 1053.03 3118.62V3201.27C1049.44 3202 1046.7 3204.99 1046.7 3208.77C1046.7 3213.1 1050.17 3216.58 1054.49 3216.58C1058.8 3216.58 1062.27 3213.1 1062.27 3208.77C1062.27 3204.99 1059.53 3201.94 1055.94 3201.27V3118.62C1059.53 3117.89 1062.27 3114.9 1062.27 3111.12C1062.27 3110.15 1062.03 3109.23 1061.72 3108.32L1197.75 3048.36C1199.15 3050.37 1201.4 3051.78 1204.01 3051.78C1208.33 3051.78 1211.8 3048.3 1211.8 3043.97C1211.8 3039.64 1208.33 3036.16 1204.01 3036.16ZM1353.54 3200.9C1350.93 3200.9 1348.68 3202.3 1347.28 3204.32L1286.23 3177.42C1286.35 3176.87 1286.59 3176.32 1286.59 3175.71C1286.59 3171.38 1283.13 3167.9 1278.81 3167.9C1274.49 3167.9 1271.03 3171.38 1271.03 3175.71C1271.03 3180.04 1274.49 3183.52 1278.81 3183.52C1281.42 3183.52 1283.67 3182.12 1285.07 3180.1L1346.12 3207C1346 3207.55 1345.76 3208.1 1345.76 3208.71C1345.76 3213.04 1349.23 3216.52 1353.54 3216.52C1357.86 3216.52 1361.33 3213.04 1361.33 3208.71C1361.33 3204.38 1357.86 3200.9 1353.54 3200.9ZM1353.54 3464.51C1349.23 3464.51 1345.76 3467.99 1345.76 3472.32C1345.76 3472.93 1345.94 3473.42 1346.12 3474.03L1285.07 3500.92C1283.67 3498.91 1281.42 3497.51 1278.81 3497.51C1274.49 3497.51 1271.03 3500.98 1271.03 3505.31C1271.03 3509.65 1274.49 3513.12 1278.81 3513.12C1283.13 3513.12 1286.59 3509.65 1286.59 3505.31C1286.59 3504.7 1286.35 3504.22 1286.23 3503.61L1347.28 3476.71C1348.68 3478.72 1350.93 3480.13 1353.54 3480.13C1357.86 3480.13 1361.33 3476.65 1361.33 3472.32C1361.33 3467.99 1357.86 3464.51 1353.54 3464.51ZM1129.28 3332.71C1124.96 3332.71 1121.5 3336.18 1121.5 3340.51C1121.5 3341.12 1121.74 3341.61 1121.86 3342.22L1060.81 3369.12C1059.41 3367.11 1057.16 3365.7 1054.55 3365.7C1051.93 3365.7 1049.68 3367.11 1048.28 3369.12L987.231 3342.22C987.353 3341.67 987.596 3341.12 987.596 3340.51C987.596 3336.18 984.13 3332.71 979.812 3332.71C975.495 3332.71 972.029 3336.18 972.029 3340.51C972.029 3344.84 975.495 3348.32 979.812 3348.32C982.427 3348.32 984.677 3346.92 986.076 3344.9L1047.13 3371.8C1047.01 3372.35 1046.76 3372.9 1046.76 3373.51C1046.76 3377.84 1050.23 3381.32 1054.55 3381.32C1058.86 3381.32 1062.33 3377.84 1062.33 3373.51C1062.33 3372.9 1062.15 3372.41 1061.97 3371.8L1123.02 3344.9C1124.42 3346.92 1126.67 3348.32 1129.28 3348.32C1133.6 3348.32 1137.06 3344.84 1137.06 3340.51C1137.06 3336.18 1133.6 3332.71 1129.28 3332.71ZM682.153 3348.02V3432.79C685.741 3433.53 688.477 3436.52 688.477 3440.3C688.477 3444.63 685.011 3448.1 680.694 3448.1C677.714 3448.1 675.221 3446.4 673.944 3443.96L613.378 3470.67C613.5 3471.22 613.743 3471.77 613.743 3472.38C613.743 3476.71 610.277 3480.19 605.96 3480.19C601.642 3480.19 598.176 3476.71 598.176 3472.38C598.176 3471.77 598.359 3471.28 598.541 3470.67L537.185 3443.65C535.786 3445.42 533.658 3446.64 531.226 3446.64C526.908 3446.64 523.442 3443.16 523.442 3438.83C523.442 3435.05 526.179 3432 529.766 3431.33V3348.08C527.76 3347.65 526.057 3346.55 524.962 3344.9L463.91 3371.8C464.032 3372.35 464.275 3372.9 464.275 3373.51C464.275 3377.84 460.809 3381.32 456.492 3381.32C452.174 3381.32 448.708 3377.84 448.708 3373.51C448.708 3372.9 448.891 3372.41 449.073 3371.8L388.021 3344.9C386.622 3346.92 384.372 3348.32 381.758 3348.32C377.44 3348.32 373.974 3344.84 373.974 3340.51C373.974 3336.73 376.711 3333.68 380.298 3333.01V3249.76C376.711 3249.02 373.974 3246.04 373.974 3242.25C373.974 3237.92 377.44 3234.45 381.758 3234.45C386.075 3234.45 389.541 3237.92 389.541 3242.25C389.541 3246.04 386.805 3249.09 383.217 3249.76V3333.01C386.805 3333.74 389.541 3336.73 389.541 3340.51C389.541 3341.12 389.359 3341.61 389.176 3342.22L450.228 3369.12C451.627 3367.11 453.877 3365.7 456.492 3365.7C459.107 3365.7 461.356 3367.11 462.755 3369.12L523.807 3342.22C523.685 3341.67 523.442 3341.12 523.442 3340.51C523.442 3336.73 526.179 3333.68 529.766 3333.01V3249.21C526.179 3248.48 523.442 3245.49 523.442 3241.71C523.442 3237.38 526.908 3233.9 531.226 3233.9C535.543 3233.9 539.009 3237.38 539.009 3241.71C539.009 3245.49 536.273 3248.54 532.685 3249.21V3333.01C536.273 3333.74 539.009 3336.73 539.009 3340.51C539.009 3341.12 538.827 3341.61 538.644 3342.22L599.697 3369.12C601.095 3367.11 603.345 3365.7 605.96 3365.7C608.575 3365.7 610.825 3367.11 612.223 3369.12L673.275 3342.22C673.154 3341.67 672.91 3341.12 672.91 3340.51C672.91 3336.18 676.376 3332.71 680.694 3332.71C685.011 3332.71 688.477 3336.18 688.477 3340.51C688.477 3344.29 685.741 3347.34 682.153 3348.02ZM679.234 3348.02C677.228 3347.59 675.525 3346.49 674.431 3344.84L613.378 3371.74C613.5 3372.29 613.743 3372.84 613.743 3373.45C613.743 3377.78 610.277 3381.26 605.96 3381.26C601.642 3381.26 598.176 3377.78 598.176 3373.45C598.176 3372.84 598.359 3372.35 598.541 3371.74L537.489 3344.84C536.334 3346.49 534.692 3347.59 532.685 3348.02V3431.27C536.273 3432 539.009 3434.99 539.009 3438.77C539.009 3439.57 538.766 3440.3 538.584 3441.03L599.757 3467.99C601.156 3465.97 603.406 3464.57 606.021 3464.57C608.635 3464.57 610.885 3465.97 612.284 3467.99L673.154 3441.15C673.154 3441.15 672.971 3440.6 672.971 3440.3C672.971 3436.52 675.708 3433.47 679.295 3432.79V3348.02H679.234ZM688.477 3076.9C688.477 3072.57 685.011 3069.1 680.694 3069.1C678.079 3069.1 675.829 3070.5 674.431 3072.51L613.378 3045.61C613.5 3045.07 613.743 3044.52 613.743 3043.91C613.743 3040.13 611.007 3037.08 607.419 3036.41V2952.6C611.007 2951.87 613.743 2948.88 613.743 2945.1C613.743 2940.77 610.277 2937.29 605.96 2937.29C601.642 2937.29 598.176 2940.77 598.176 2945.1C598.176 2948.88 600.913 2951.93 604.5 2952.6V3036.41C600.913 3037.14 598.176 3040.13 598.176 3043.91C598.176 3048.24 601.642 3051.71 605.96 3051.71C608.575 3051.71 610.825 3050.31 612.223 3048.3L673.275 3075.2C673.154 3075.75 672.91 3076.29 672.91 3076.9C672.91 3080.69 675.647 3083.74 679.234 3084.41V3168.21C675.647 3168.94 672.91 3171.93 672.91 3175.71C672.91 3176.32 673.093 3176.81 673.275 3177.42L612.223 3204.32C610.825 3202.3 608.575 3200.9 605.96 3200.9C601.642 3200.9 598.176 3204.38 598.176 3208.71C598.176 3213.04 601.642 3216.52 605.96 3216.52C610.277 3216.52 613.743 3213.04 613.743 3208.71C613.743 3208.1 613.5 3207.61 613.378 3207L674.431 3180.1C675.829 3182.12 678.079 3183.52 680.694 3183.52C685.011 3183.52 688.477 3180.04 688.477 3175.71C688.477 3171.93 685.741 3168.88 682.153 3168.21V3084.41C685.741 3083.67 688.477 3080.69 688.477 3076.9ZM232.168 3497.45C229.553 3497.45 227.303 3498.85 225.905 3500.86L164.853 3473.96C164.974 3473.42 165.218 3472.87 165.218 3472.26C165.218 3467.93 161.751 3464.45 157.434 3464.45C153.117 3464.45 149.65 3467.93 149.65 3472.26C149.65 3476.59 153.117 3480.06 157.434 3480.06C160.049 3480.06 162.299 3478.66 163.697 3476.65L224.749 3503.55C224.628 3504.1 224.385 3504.64 224.385 3505.25C224.385 3509.58 227.851 3513.06 232.168 3513.06C236.485 3513.06 239.952 3509.58 239.952 3505.25C239.952 3500.92 236.485 3497.45 232.168 3497.45ZM82.6392 3069.16C80.0244 3069.16 77.7745 3070.56 76.3759 3072.57L15.3238 3045.68C15.4454 3045.13 15.6887 3044.58 15.6887 3043.97C15.6887 3040.19 12.9523 3037.14 9.36456 3036.47V2853.79C12.9523 2853.06 15.6887 2850.07 15.6887 2846.29C15.6887 2841.96 12.2226 2838.48 7.90515 2838.48C3.58772 2838.48 0.121618 2841.96 0.121618 2846.29C0.121618 2850.07 2.85801 2853.12 6.44573 2853.79V3036.47C2.85801 3037.2 0.121618 3040.19 0.121618 3043.97C0.121618 3048.3 3.58772 3051.78 7.90515 3051.78C10.5199 3051.78 12.7698 3050.37 14.1685 3048.36L75.2205 3075.26C75.0989 3075.81 74.8557 3076.36 74.8557 3076.97C74.8557 3081.3 78.3217 3084.77 82.6392 3084.77C86.9566 3084.77 90.4227 3081.3 90.4227 3076.97C90.4227 3072.63 86.9566 3069.16 82.6392 3069.16ZM314.686 2945.16C314.686 2940.83 311.22 2937.35 306.902 2937.35C302.585 2937.35 299.119 2940.83 299.119 2945.16C299.119 2948.94 301.855 2951.99 305.443 2952.66V3036.47C301.855 3037.2 299.119 3040.19 299.119 3043.97C299.119 3044.58 299.301 3045.07 299.483 3045.68L238.431 3072.57C237.033 3070.56 234.783 3069.16 232.168 3069.16C227.851 3069.16 224.385 3072.63 224.385 3076.97C224.385 3080.75 227.121 3083.8 230.709 3084.47V3168.27C227.121 3169 224.385 3171.99 224.385 3175.77C224.385 3180.1 227.851 3183.58 232.168 3183.58C236.485 3183.58 239.952 3180.1 239.952 3175.77C239.952 3171.99 237.215 3168.94 233.627 3168.27V3084.47C237.215 3083.74 239.952 3080.75 239.952 3076.97C239.952 3076.36 239.769 3075.87 239.587 3075.26L300.639 3048.36C302.037 3050.37 304.287 3051.78 306.902 3051.78C311.22 3051.78 314.686 3048.3 314.686 3043.97C314.686 3040.19 311.949 3037.14 308.361 3036.47V2952.66C311.949 2951.93 314.686 2948.94 314.686 2945.16ZM598.176 2681.55C598.176 2682.16 598.359 2682.65 598.541 2683.26L537.489 2710.16C536.09 2708.14 533.841 2706.74 531.226 2706.74C528.611 2706.74 526.361 2708.14 524.962 2710.16L463.91 2683.26C464.032 2682.71 464.275 2682.16 464.275 2681.55C464.275 2677.22 460.809 2673.74 456.492 2673.74C452.174 2673.74 448.708 2677.22 448.708 2681.55C448.708 2685.88 452.174 2689.36 456.492 2689.36C459.107 2689.36 461.356 2687.96 462.755 2685.94L523.807 2712.84C523.685 2713.39 523.442 2713.94 523.442 2714.55C523.442 2718.88 526.908 2722.36 531.226 2722.36C535.543 2722.36 539.009 2718.88 539.009 2714.55C539.009 2713.94 538.827 2713.45 538.644 2712.84L599.697 2685.94C601.095 2687.96 603.345 2689.36 605.96 2689.36C610.277 2689.36 613.743 2685.88 613.743 2681.55C613.743 2677.77 611.007 2674.72 607.419 2674.05V2590.25C611.007 2589.51 613.743 2586.52 613.743 2582.74C613.743 2578.41 610.277 2574.94 605.96 2574.94C601.642 2574.94 598.176 2578.41 598.176 2582.74C598.176 2586.52 600.913 2589.57 604.5 2590.25V2674.05C600.913 2674.78 598.176 2677.77 598.176 2681.55ZM299.119 2319.13C299.119 2314.8 302.585 2311.33 306.902 2311.33C309.517 2311.33 311.767 2312.73 313.165 2314.74L374.217 2287.84C374.096 2287.3 373.853 2286.75 373.853 2286.14C373.853 2282.36 376.589 2279.31 380.177 2278.64V2195.32C376.589 2194.59 373.853 2191.6 373.853 2187.82C373.853 2183.49 377.319 2180.01 381.636 2180.01C384.129 2180.01 386.197 2181.23 387.656 2183.06L448.951 2156.04C448.83 2155.49 448.587 2154.94 448.587 2154.33C448.587 2150 452.053 2146.53 456.37 2146.53C460.688 2146.53 464.154 2150 464.154 2154.33C464.154 2158.11 461.417 2161.16 457.83 2161.83V2246C461.417 2246.74 464.154 2249.72 464.154 2253.51C464.154 2257.84 460.688 2261.31 456.37 2261.31C453.634 2261.31 451.323 2259.79 449.924 2257.59L389.055 2284.43C389.176 2284.98 389.42 2285.53 389.42 2286.14C389.42 2286.75 389.237 2287.24 389.055 2287.84L450.107 2314.74C451.505 2312.73 453.755 2311.33 456.37 2311.33C458.985 2311.33 461.235 2312.73 462.633 2314.74L523.685 2287.84C523.564 2287.3 523.321 2286.75 523.321 2286.14C523.321 2281.81 526.787 2278.33 531.104 2278.33C535.422 2278.33 538.888 2281.81 538.888 2286.14C538.888 2289.92 536.151 2292.97 532.564 2293.64V2377.44C536.151 2378.17 538.888 2381.16 538.888 2384.94C538.888 2389.28 535.422 2392.75 531.104 2392.75C526.787 2392.75 523.321 2389.28 523.321 2384.94C523.321 2381.16 526.057 2378.11 529.645 2377.44V2293.64C527.638 2293.21 525.935 2292.11 524.841 2290.47L463.789 2317.37C463.91 2317.91 464.154 2318.46 464.154 2319.07C464.154 2323.4 460.688 2326.88 456.37 2326.88C452.053 2326.88 448.587 2323.4 448.587 2319.07C448.587 2318.46 448.769 2317.98 448.951 2317.37L387.899 2290.47C386.501 2292.48 384.251 2293.88 381.636 2293.88C379.021 2293.88 376.771 2292.48 375.373 2290.47L314.321 2317.37C314.442 2317.91 314.686 2318.46 314.686 2319.07C314.686 2323.4 311.22 2326.88 306.902 2326.88C302.585 2326.88 299.119 2323.4 299.119 2319.07V2319.13ZM383.096 2278.7C385.102 2279.12 386.805 2280.22 387.899 2281.87L448.891 2254.97C448.83 2254.48 448.587 2254.12 448.587 2253.63C448.587 2249.85 451.323 2246.8 454.911 2246.13V2161.96C452.904 2161.53 451.201 2160.43 450.107 2158.78L388.994 2185.74C389.176 2186.41 389.42 2187.15 389.42 2187.88C389.42 2191.66 386.683 2194.71 383.096 2195.38V2278.7ZM7.78353 2162.08C12.101 2162.08 15.5671 2158.6 15.5671 2154.27C15.5671 2153.66 15.3846 2153.17 15.2022 2152.56L76.3759 2125.61C77.7745 2127.5 79.9636 2128.84 82.5176 2128.84C85.0715 2128.84 87.2606 2127.5 88.6592 2125.61L149.833 2152.56C149.711 2153.11 149.468 2153.66 149.468 2154.27C149.468 2158.6 152.934 2162.08 157.252 2162.08C161.569 2162.08 165.035 2158.6 165.035 2154.27C165.035 2150.49 162.299 2147.44 158.711 2146.77V2055.46C158.711 2054.67 158.042 2054 157.252 2054C156.461 2054 155.792 2054.67 155.792 2055.46V2146.77C153.785 2147.2 152.083 2148.29 150.988 2149.94L89.8754 2123.04C90.0578 2122.43 90.2403 2121.82 90.2403 2121.15C90.2403 2116.82 86.7742 2113.35 82.4567 2113.35C78.1393 2113.35 74.6732 2116.82 74.6732 2121.15C74.6732 2121.82 74.9165 2122.43 75.0381 2123.04L14.0468 2149.94C12.6482 2147.93 10.3983 2146.53 7.78353 2146.53C3.4661 2146.53 0 2150 0 2154.33C0 2158.66 3.4661 2162.14 7.78353 2162.14V2162.08ZM450.046 2784.63C451.445 2786.64 453.695 2788.04 456.309 2788.04C460.627 2788.04 464.093 2784.57 464.093 2780.24C464.093 2775.91 460.627 2772.43 456.309 2772.43C451.992 2772.43 448.526 2775.91 448.526 2780.24C448.526 2780.85 448.708 2781.33 448.891 2781.94L313.105 2841.78C311.706 2839.77 309.456 2838.36 306.841 2838.36C302.524 2838.36 299.058 2841.84 299.058 2846.17C299.058 2850.5 302.524 2853.98 306.841 2853.98C311.159 2853.98 314.625 2850.5 314.625 2846.17C314.625 2845.56 314.382 2845.07 314.26 2844.46L450.046 2784.63Z" fill="#1C1C1C"/>
</g>
<g clip-path="url(#clip2_1_2377)">
<path d="M762.786 2580.91C762.907 2581.46 763.151 2582.01 763.151 2582.62C763.151 2586.95 759.685 2590.43 755.367 2590.43C751.05 2590.43 747.584 2586.95 747.584 2582.62C747.584 2582.01 747.766 2581.52 747.948 2580.91L686.896 2554.02C685.498 2556.03 683.248 2557.43 680.633 2557.43C676.316 2557.43 672.849 2553.95 672.849 2549.62C672.849 2545.84 675.586 2542.79 679.174 2542.12V2458.32C675.586 2457.59 672.849 2454.6 672.849 2450.82C672.849 2446.49 676.316 2443.01 680.633 2443.01C683.248 2443.01 685.498 2444.41 686.896 2446.43L747.948 2419.53C747.827 2418.98 747.584 2418.43 747.584 2417.82C747.584 2414.04 750.32 2410.99 753.908 2410.32V2326.51C750.32 2325.78 747.584 2322.79 747.584 2319.01C747.584 2314.68 751.05 2311.21 755.367 2311.21C759.685 2311.21 763.151 2314.68 763.151 2319.01C763.151 2322.79 760.414 2325.84 756.826 2326.51V2410.32C760.414 2411.05 763.151 2414.04 763.151 2417.82C763.151 2422.15 759.685 2425.63 755.367 2425.63C752.752 2425.63 750.502 2424.22 749.104 2422.21L688.052 2449.11C688.173 2449.66 688.417 2450.21 688.417 2450.82C688.417 2454.6 685.68 2457.65 682.092 2458.32V2542.12C685.68 2542.85 688.417 2545.84 688.417 2549.62C688.417 2550.23 688.234 2550.72 688.052 2551.33L749.104 2578.23C750.502 2576.22 752.752 2574.81 755.367 2574.81C757.982 2574.81 760.232 2576.22 761.63 2578.23L822.682 2551.33C822.561 2550.78 822.318 2550.23 822.318 2549.62C822.318 2545.29 825.784 2541.82 830.101 2541.82C834.418 2541.82 837.885 2545.29 837.885 2549.62C837.885 2550.23 837.702 2550.72 837.52 2551.33L898.572 2578.23C899.97 2576.22 902.22 2574.81 904.835 2574.81C909.153 2574.81 912.619 2578.29 912.619 2582.62C912.619 2586.95 909.153 2590.43 904.835 2590.43C900.518 2590.43 897.052 2586.95 897.052 2582.62C897.052 2582.01 897.234 2581.52 897.416 2580.91L836.364 2554.02C834.966 2556.03 832.716 2557.43 830.101 2557.43C827.486 2557.43 825.236 2556.03 823.838 2554.02L762.786 2580.91ZM973.367 2916.43C974.765 2918.45 977.015 2919.85 979.63 2919.85C982.245 2919.85 984.495 2918.45 985.893 2916.43L1046.95 2943.33C1046.82 2943.88 1046.58 2944.43 1046.58 2945.04C1046.58 2949.37 1050.05 2952.85 1054.36 2952.85C1058.68 2952.85 1062.15 2949.37 1062.15 2945.04C1062.15 2940.71 1058.68 2937.23 1054.36 2937.23C1051.69 2937.23 1049.5 2938.63 1048.1 2940.65L987.049 2913.75C987.17 2913.2 987.414 2912.65 987.414 2912.04C987.414 2907.71 983.947 2904.23 979.63 2904.23C975.313 2904.23 971.846 2907.71 971.846 2912.04C971.846 2912.65 972.029 2913.14 972.211 2913.75L911.159 2940.65C910.004 2939 908.362 2937.9 906.355 2937.48V2853.67C909.943 2852.94 912.679 2849.95 912.679 2846.17C912.679 2841.84 909.213 2838.36 904.896 2838.36C902.281 2838.36 900.031 2839.77 898.633 2841.78L837.581 2814.88C837.702 2814.33 837.945 2813.78 837.945 2813.17C837.945 2809.39 835.209 2806.34 831.621 2805.67V2721.87C835.209 2721.14 837.945 2718.15 837.945 2714.37C837.945 2710.03 834.479 2706.56 830.162 2706.56C825.844 2706.56 822.378 2710.03 822.378 2714.37C822.378 2718.15 825.115 2721.2 828.702 2721.87V2805.67C825.115 2806.4 822.378 2809.39 822.378 2813.17C822.378 2817.5 825.844 2820.98 830.162 2820.98C832.777 2820.98 835.027 2819.58 836.425 2817.56L897.477 2844.46C897.356 2845.01 897.112 2845.56 897.112 2846.17C897.112 2849.95 899.849 2853 903.437 2853.67V2937.48C899.849 2938.21 897.112 2941.2 897.112 2944.98C897.112 2949.31 900.578 2952.78 904.896 2952.78C909.213 2952.78 912.679 2949.31 912.679 2944.98C912.679 2944.37 912.497 2943.88 912.315 2943.27L973.367 2916.37V2916.43ZM151.049 2784.69C152.448 2786.7 154.698 2788.1 157.312 2788.1C161.63 2788.1 165.096 2784.63 165.096 2780.3C165.096 2776.52 162.36 2773.47 158.772 2772.8V2590.12C162.36 2589.39 165.096 2586.4 165.096 2582.62C165.096 2582.01 164.853 2581.52 164.731 2580.91L225.783 2554.02C227.182 2556.03 229.432 2557.43 232.046 2557.43C236.364 2557.43 239.83 2553.95 239.83 2549.62C239.83 2545.84 237.094 2542.79 233.506 2542.12V2458.32C237.094 2457.59 239.83 2454.6 239.83 2450.82C239.83 2446.49 236.364 2443.01 232.046 2443.01C227.729 2443.01 224.263 2446.49 224.263 2450.82C224.263 2454.6 226.999 2457.65 230.587 2458.32V2542.12C226.999 2542.85 224.263 2545.84 224.263 2549.62C224.263 2550.23 224.445 2550.72 224.628 2551.33L163.576 2578.23C162.177 2576.22 159.927 2574.81 157.312 2574.81C152.995 2574.81 149.529 2578.29 149.529 2582.62C149.529 2586.4 152.265 2589.45 155.853 2590.12V2772.8C152.265 2773.53 149.529 2776.52 149.529 2780.3C149.529 2780.91 149.711 2781.4 149.894 2782.01L88.8417 2808.9C87.4431 2806.89 85.1931 2805.49 82.5784 2805.49C78.2609 2805.49 74.7948 2808.96 74.7948 2813.29C74.7948 2817.63 78.2609 2821.1 82.5784 2821.1C86.8958 2821.1 90.3619 2817.63 90.3619 2813.29C90.3619 2812.68 90.1795 2812.2 89.997 2811.59L151.049 2784.69ZM822.378 2286.14C822.378 2290.47 825.844 2293.94 830.162 2293.94C834.479 2293.94 837.945 2290.47 837.945 2286.14C837.945 2282.36 835.209 2279.31 831.621 2278.64V2195.5C835.209 2194.77 837.945 2191.78 837.945 2188C837.945 2187.15 837.702 2186.41 837.459 2185.68L898.633 2158.72C900.031 2160.74 902.281 2162.14 904.896 2162.14C909.213 2162.14 912.679 2158.66 912.679 2154.33C912.679 2150.55 909.943 2147.5 906.355 2146.83V2055.46C906.355 2054.67 905.686 2054 904.896 2054C904.105 2054 903.437 2054.67 903.437 2055.46V2146.77C899.849 2147.5 897.112 2150.49 897.112 2154.27C897.112 2154.88 897.356 2155.37 897.477 2155.98L836.06 2183.06C834.662 2181.35 832.533 2180.19 830.162 2180.19C825.844 2180.19 822.378 2183.67 822.378 2188C822.378 2191.78 825.115 2194.83 828.702 2195.5V2278.64C825.115 2279.37 822.378 2282.36 822.378 2286.14ZM979.691 2129.2C982.306 2129.2 984.555 2127.8 985.954 2125.79L1047.01 2152.69C1046.88 2153.23 1046.64 2153.78 1046.64 2154.39C1046.64 2158.72 1050.11 2162.2 1054.42 2162.2C1058.74 2162.2 1062.21 2158.72 1062.21 2154.39C1062.21 2150.06 1058.74 2146.59 1054.42 2146.59C1051.81 2146.59 1049.56 2147.99 1048.16 2150L987.109 2123.1C987.231 2122.56 987.474 2122.01 987.474 2121.4C987.474 2117.07 984.008 2113.59 979.691 2113.59C975.373 2113.59 971.907 2117.07 971.907 2121.4C971.907 2125.73 975.373 2129.2 979.691 2129.2ZM1270.96 2385.19C1270.96 2389.52 1274.43 2393 1278.75 2393C1281.48 2393 1283.73 2391.53 1285.13 2389.4L1346.06 2416.23C1345.94 2416.78 1345.7 2417.33 1345.7 2417.94C1345.7 2422.27 1349.17 2425.75 1353.48 2425.75C1357.8 2425.75 1361.27 2422.27 1361.27 2417.94C1361.27 2413.61 1357.8 2410.13 1353.48 2410.13C1350.87 2410.13 1348.62 2411.54 1347.22 2413.55L1286.23 2386.65C1286.35 2386.16 1286.53 2385.68 1286.53 2385.13C1286.53 2381.35 1283.8 2378.3 1280.21 2377.63V2293.58C1283.8 2292.85 1286.53 2289.86 1286.53 2286.08C1286.53 2281.75 1283.07 2278.27 1278.75 2278.27C1274.43 2278.27 1270.96 2281.75 1270.96 2286.08C1270.96 2289.86 1273.7 2292.91 1277.29 2293.58V2377.63C1273.7 2378.36 1270.96 2381.35 1270.96 2385.13V2385.19ZM1127.76 2458.38V2542.18C1125.75 2542.61 1124.05 2543.71 1122.96 2545.36L1061.9 2518.46C1062.03 2517.91 1062.27 2517.36 1062.27 2516.75C1062.27 2512.42 1058.8 2508.94 1054.49 2508.94C1050.17 2508.94 1046.7 2512.42 1046.7 2516.75C1046.7 2521.08 1050.17 2524.56 1054.49 2524.56C1057.1 2524.56 1059.35 2523.15 1060.75 2521.14L1121.8 2548.04C1121.68 2548.59 1121.44 2549.14 1121.44 2549.75C1121.44 2554.08 1124.9 2557.55 1129.22 2557.55C1133.54 2557.55 1137 2554.08 1137 2549.75C1137 2545.96 1134.27 2542.92 1130.68 2542.24V2458.44C1134.27 2457.71 1137 2454.72 1137 2450.94C1137 2450.33 1136.82 2449.84 1136.64 2449.23L1197.69 2422.33C1199.09 2424.35 1201.34 2425.75 1203.95 2425.75C1208.27 2425.75 1211.74 2422.27 1211.74 2417.94C1211.74 2413.61 1208.27 2410.13 1203.95 2410.13C1199.64 2410.13 1196.17 2413.61 1196.17 2417.94C1196.17 2418.55 1196.35 2419.04 1196.54 2419.65L1135.48 2446.55C1134.08 2444.53 1131.83 2443.13 1129.22 2443.13C1124.9 2443.13 1121.44 2446.61 1121.44 2450.94C1121.44 2454.72 1124.17 2457.77 1127.76 2458.44V2458.38ZM1429.74 2805.79V2721.99C1433.32 2721.26 1436.06 2718.27 1436.06 2714.49C1436.06 2710.16 1432.59 2706.68 1428.28 2706.68C1425.66 2706.68 1423.41 2708.08 1422.01 2710.1L1360.96 2683.2C1361.08 2682.65 1361.33 2682.1 1361.33 2681.49C1361.33 2677.16 1357.86 2673.68 1353.54 2673.68C1349.23 2673.68 1345.76 2677.16 1345.76 2681.49C1345.76 2685.27 1348.5 2688.32 1352.08 2688.99V2772.8C1348.5 2773.53 1345.76 2776.52 1345.76 2780.3C1345.76 2780.91 1346 2781.4 1346.12 2782.01L1285.07 2808.9C1283.67 2806.89 1281.42 2805.49 1278.81 2805.49C1276.19 2805.49 1273.94 2806.89 1272.55 2808.9L1211.49 2782.01C1211.62 2781.46 1211.86 2780.91 1211.86 2780.3C1211.86 2775.97 1208.39 2772.49 1204.08 2772.49C1199.76 2772.49 1196.29 2775.97 1196.29 2780.3C1196.29 2784.63 1199.76 2788.1 1204.08 2788.1C1206.69 2788.1 1208.94 2786.7 1210.34 2784.69L1271.39 2811.59C1271.27 2812.14 1271.03 2812.68 1271.03 2813.29C1271.03 2817.63 1274.49 2821.1 1278.81 2821.1C1283.13 2821.1 1286.59 2817.63 1286.59 2813.29C1286.59 2812.68 1286.41 2812.2 1286.23 2811.59L1347.28 2784.69C1348.68 2786.7 1350.93 2788.1 1353.54 2788.1C1357.86 2788.1 1361.33 2784.63 1361.33 2780.3C1361.33 2776.52 1358.59 2773.47 1355 2772.8V2688.99C1357.01 2688.57 1358.71 2687.47 1359.81 2685.82L1420.86 2712.72C1420.74 2713.27 1420.49 2713.82 1420.49 2714.43C1420.49 2718.21 1423.23 2721.26 1426.82 2721.93V2805.73C1423.23 2806.46 1420.49 2809.45 1420.49 2813.23C1420.49 2813.84 1420.68 2814.33 1420.86 2814.94L1359.5 2841.96C1358.1 2840.19 1355.98 2838.97 1353.54 2838.97C1349.23 2838.97 1345.76 2842.45 1345.76 2846.78C1345.76 2850.56 1348.5 2853.61 1352.08 2854.28V2937.54C1348.5 2938.27 1345.76 2941.26 1345.76 2945.04C1345.76 2949.37 1349.23 2952.85 1353.54 2952.85C1357.86 2952.85 1361.33 2949.37 1361.33 2945.04C1361.33 2941.26 1358.59 2938.21 1355 2937.54V2854.28C1358.59 2853.55 1361.33 2850.56 1361.33 2846.78C1361.33 2845.99 1361.08 2845.25 1360.9 2844.52L1422.07 2817.56C1423.47 2819.58 1425.72 2820.98 1428.34 2820.98C1432.66 2820.98 1436.12 2817.5 1436.12 2813.17C1436.12 2809.39 1433.39 2806.34 1429.8 2805.67L1429.74 2805.79ZM1204.01 3036.16C1199.7 3036.16 1196.23 3039.64 1196.23 3043.97C1196.23 3044.58 1196.41 3045.07 1196.6 3045.68L1060.14 3105.81C1058.74 3104.29 1056.74 3103.31 1054.49 3103.31C1050.17 3103.31 1046.7 3106.79 1046.7 3111.12C1046.7 3114.9 1049.44 3117.95 1053.03 3118.62V3201.27C1049.44 3202 1046.7 3204.99 1046.7 3208.77C1046.7 3213.1 1050.17 3216.58 1054.49 3216.58C1058.8 3216.58 1062.27 3213.1 1062.27 3208.77C1062.27 3204.99 1059.53 3201.94 1055.94 3201.27V3118.62C1059.53 3117.89 1062.27 3114.9 1062.27 3111.12C1062.27 3110.15 1062.03 3109.23 1061.72 3108.32L1197.75 3048.36C1199.15 3050.37 1201.4 3051.78 1204.01 3051.78C1208.33 3051.78 1211.8 3048.3 1211.8 3043.97C1211.8 3039.64 1208.33 3036.16 1204.01 3036.16ZM1353.54 3200.9C1350.93 3200.9 1348.68 3202.3 1347.28 3204.32L1286.23 3177.42C1286.35 3176.87 1286.59 3176.32 1286.59 3175.71C1286.59 3171.38 1283.13 3167.9 1278.81 3167.9C1274.49 3167.9 1271.03 3171.38 1271.03 3175.71C1271.03 3180.04 1274.49 3183.52 1278.81 3183.52C1281.42 3183.52 1283.67 3182.12 1285.07 3180.1L1346.12 3207C1346 3207.55 1345.76 3208.1 1345.76 3208.71C1345.76 3213.04 1349.23 3216.52 1353.54 3216.52C1357.86 3216.52 1361.33 3213.04 1361.33 3208.71C1361.33 3204.38 1357.86 3200.9 1353.54 3200.9ZM1353.54 3464.51C1349.23 3464.51 1345.76 3467.99 1345.76 3472.32C1345.76 3472.93 1345.94 3473.42 1346.12 3474.03L1285.07 3500.92C1283.67 3498.91 1281.42 3497.51 1278.81 3497.51C1274.49 3497.51 1271.03 3500.98 1271.03 3505.31C1271.03 3509.65 1274.49 3513.12 1278.81 3513.12C1283.13 3513.12 1286.59 3509.65 1286.59 3505.31C1286.59 3504.7 1286.35 3504.22 1286.23 3503.61L1347.28 3476.71C1348.68 3478.72 1350.93 3480.13 1353.54 3480.13C1357.86 3480.13 1361.33 3476.65 1361.33 3472.32C1361.33 3467.99 1357.86 3464.51 1353.54 3464.51ZM1129.28 3332.71C1124.96 3332.71 1121.5 3336.18 1121.5 3340.51C1121.5 3341.12 1121.74 3341.61 1121.86 3342.22L1060.81 3369.12C1059.41 3367.11 1057.16 3365.7 1054.55 3365.7C1051.93 3365.7 1049.68 3367.11 1048.28 3369.12L987.231 3342.22C987.353 3341.67 987.596 3341.12 987.596 3340.51C987.596 3336.18 984.13 3332.71 979.812 3332.71C975.495 3332.71 972.029 3336.18 972.029 3340.51C972.029 3344.84 975.495 3348.32 979.812 3348.32C982.427 3348.32 984.677 3346.92 986.076 3344.9L1047.13 3371.8C1047.01 3372.35 1046.76 3372.9 1046.76 3373.51C1046.76 3377.84 1050.23 3381.32 1054.55 3381.32C1058.86 3381.32 1062.33 3377.84 1062.33 3373.51C1062.33 3372.9 1062.15 3372.41 1061.97 3371.8L1123.02 3344.9C1124.42 3346.92 1126.67 3348.32 1129.28 3348.32C1133.6 3348.32 1137.06 3344.84 1137.06 3340.51C1137.06 3336.18 1133.6 3332.71 1129.28 3332.71ZM682.153 3348.02V3432.79C685.741 3433.53 688.477 3436.52 688.477 3440.3C688.477 3444.63 685.011 3448.1 680.694 3448.1C677.714 3448.1 675.221 3446.4 673.944 3443.96L613.378 3470.67C613.5 3471.22 613.743 3471.77 613.743 3472.38C613.743 3476.71 610.277 3480.19 605.96 3480.19C601.642 3480.19 598.176 3476.71 598.176 3472.38C598.176 3471.77 598.359 3471.28 598.541 3470.67L537.185 3443.65C535.786 3445.42 533.658 3446.64 531.226 3446.64C526.908 3446.64 523.442 3443.16 523.442 3438.83C523.442 3435.05 526.179 3432 529.766 3431.33V3348.08C527.76 3347.65 526.057 3346.55 524.962 3344.9L463.91 3371.8C464.032 3372.35 464.275 3372.9 464.275 3373.51C464.275 3377.84 460.809 3381.32 456.492 3381.32C452.174 3381.32 448.708 3377.84 448.708 3373.51C448.708 3372.9 448.891 3372.41 449.073 3371.8L388.021 3344.9C386.622 3346.92 384.372 3348.32 381.758 3348.32C377.44 3348.32 373.974 3344.84 373.974 3340.51C373.974 3336.73 376.711 3333.68 380.298 3333.01V3249.76C376.711 3249.02 373.974 3246.04 373.974 3242.25C373.974 3237.92 377.44 3234.45 381.758 3234.45C386.075 3234.45 389.541 3237.92 389.541 3242.25C389.541 3246.04 386.805 3249.09 383.217 3249.76V3333.01C386.805 3333.74 389.541 3336.73 389.541 3340.51C389.541 3341.12 389.359 3341.61 389.176 3342.22L450.228 3369.12C451.627 3367.11 453.877 3365.7 456.492 3365.7C459.107 3365.7 461.356 3367.11 462.755 3369.12L523.807 3342.22C523.685 3341.67 523.442 3341.12 523.442 3340.51C523.442 3336.73 526.179 3333.68 529.766 3333.01V3249.21C526.179 3248.48 523.442 3245.49 523.442 3241.71C523.442 3237.38 526.908 3233.9 531.226 3233.9C535.543 3233.9 539.009 3237.38 539.009 3241.71C539.009 3245.49 536.273 3248.54 532.685 3249.21V3333.01C536.273 3333.74 539.009 3336.73 539.009 3340.51C539.009 3341.12 538.827 3341.61 538.644 3342.22L599.697 3369.12C601.095 3367.11 603.345 3365.7 605.96 3365.7C608.575 3365.7 610.825 3367.11 612.223 3369.12L673.275 3342.22C673.154 3341.67 672.91 3341.12 672.91 3340.51C672.91 3336.18 676.376 3332.71 680.694 3332.71C685.011 3332.71 688.477 3336.18 688.477 3340.51C688.477 3344.29 685.741 3347.34 682.153 3348.02ZM679.234 3348.02C677.228 3347.59 675.525 3346.49 674.431 3344.84L613.378 3371.74C613.5 3372.29 613.743 3372.84 613.743 3373.45C613.743 3377.78 610.277 3381.26 605.96 3381.26C601.642 3381.26 598.176 3377.78 598.176 3373.45C598.176 3372.84 598.359 3372.35 598.541 3371.74L537.489 3344.84C536.334 3346.49 534.692 3347.59 532.685 3348.02V3431.27C536.273 3432 539.009 3434.99 539.009 3438.77C539.009 3439.57 538.766 3440.3 538.584 3441.03L599.757 3467.99C601.156 3465.97 603.406 3464.57 606.021 3464.57C608.635 3464.57 610.885 3465.97 612.284 3467.99L673.154 3441.15C673.154 3441.15 672.971 3440.6 672.971 3440.3C672.971 3436.52 675.708 3433.47 679.295 3432.79V3348.02H679.234ZM688.477 3076.9C688.477 3072.57 685.011 3069.1 680.694 3069.1C678.079 3069.1 675.829 3070.5 674.431 3072.51L613.378 3045.61C613.5 3045.07 613.743 3044.52 613.743 3043.91C613.743 3040.13 611.007 3037.08 607.419 3036.41V2952.6C611.007 2951.87 613.743 2948.88 613.743 2945.1C613.743 2940.77 610.277 2937.29 605.96 2937.29C601.642 2937.29 598.176 2940.77 598.176 2945.1C598.176 2948.88 600.913 2951.93 604.5 2952.6V3036.41C600.913 3037.14 598.176 3040.13 598.176 3043.91C598.176 3048.24 601.642 3051.71 605.96 3051.71C608.575 3051.71 610.825 3050.31 612.223 3048.3L673.275 3075.2C673.154 3075.75 672.91 3076.29 672.91 3076.9C672.91 3080.69 675.647 3083.74 679.234 3084.41V3168.21C675.647 3168.94 672.91 3171.93 672.91 3175.71C672.91 3176.32 673.093 3176.81 673.275 3177.42L612.223 3204.32C610.825 3202.3 608.575 3200.9 605.96 3200.9C601.642 3200.9 598.176 3204.38 598.176 3208.71C598.176 3213.04 601.642 3216.52 605.96 3216.52C610.277 3216.52 613.743 3213.04 613.743 3208.71C613.743 3208.1 613.5 3207.61 613.378 3207L674.431 3180.1C675.829 3182.12 678.079 3183.52 680.694 3183.52C685.011 3183.52 688.477 3180.04 688.477 3175.71C688.477 3171.93 685.741 3168.88 682.153 3168.21V3084.41C685.741 3083.67 688.477 3080.69 688.477 3076.9ZM232.168 3497.45C229.553 3497.45 227.303 3498.85 225.905 3500.86L164.853 3473.96C164.974 3473.42 165.218 3472.87 165.218 3472.26C165.218 3467.93 161.751 3464.45 157.434 3464.45C153.117 3464.45 149.65 3467.93 149.65 3472.26C149.65 3476.59 153.117 3480.06 157.434 3480.06C160.049 3480.06 162.299 3478.66 163.697 3476.65L224.749 3503.55C224.628 3504.1 224.385 3504.64 224.385 3505.25C224.385 3509.58 227.851 3513.06 232.168 3513.06C236.485 3513.06 239.952 3509.58 239.952 3505.25C239.952 3500.92 236.485 3497.45 232.168 3497.45ZM82.6392 3069.16C80.0244 3069.16 77.7745 3070.56 76.3759 3072.57L15.3238 3045.68C15.4454 3045.13 15.6887 3044.58 15.6887 3043.97C15.6887 3040.19 12.9523 3037.14 9.36456 3036.47V2853.79C12.9523 2853.06 15.6887 2850.07 15.6887 2846.29C15.6887 2841.96 12.2226 2838.48 7.90515 2838.48C3.58772 2838.48 0.121618 2841.96 0.121618 2846.29C0.121618 2850.07 2.85801 2853.12 6.44573 2853.79V3036.47C2.85801 3037.2 0.121618 3040.19 0.121618 3043.97C0.121618 3048.3 3.58772 3051.78 7.90515 3051.78C10.5199 3051.78 12.7698 3050.37 14.1685 3048.36L75.2205 3075.26C75.0989 3075.81 74.8557 3076.36 74.8557 3076.97C74.8557 3081.3 78.3217 3084.77 82.6392 3084.77C86.9566 3084.77 90.4227 3081.3 90.4227 3076.97C90.4227 3072.63 86.9566 3069.16 82.6392 3069.16ZM314.686 2945.16C314.686 2940.83 311.22 2937.35 306.902 2937.35C302.585 2937.35 299.119 2940.83 299.119 2945.16C299.119 2948.94 301.855 2951.99 305.443 2952.66V3036.47C301.855 3037.2 299.119 3040.19 299.119 3043.97C299.119 3044.58 299.301 3045.07 299.483 3045.68L238.431 3072.57C237.033 3070.56 234.783 3069.16 232.168 3069.16C227.851 3069.16 224.385 3072.63 224.385 3076.97C224.385 3080.75 227.121 3083.8 230.709 3084.47V3168.27C227.121 3169 224.385 3171.99 224.385 3175.77C224.385 3180.1 227.851 3183.58 232.168 3183.58C236.485 3183.58 239.952 3180.1 239.952 3175.77C239.952 3171.99 237.215 3168.94 233.627 3168.27V3084.47C237.215 3083.74 239.952 3080.75 239.952 3076.97C239.952 3076.36 239.769 3075.87 239.587 3075.26L300.639 3048.36C302.037 3050.37 304.287 3051.78 306.902 3051.78C311.22 3051.78 314.686 3048.3 314.686 3043.97C314.686 3040.19 311.949 3037.14 308.361 3036.47V2952.66C311.949 2951.93 314.686 2948.94 314.686 2945.16ZM598.176 2681.55C598.176 2682.16 598.359 2682.65 598.541 2683.26L537.489 2710.16C536.09 2708.14 533.841 2706.74 531.226 2706.74C528.611 2706.74 526.361 2708.14 524.962 2710.16L463.91 2683.26C464.032 2682.71 464.275 2682.16 464.275 2681.55C464.275 2677.22 460.809 2673.74 456.492 2673.74C452.174 2673.74 448.708 2677.22 448.708 2681.55C448.708 2685.88 452.174 2689.36 456.492 2689.36C459.107 2689.36 461.356 2687.96 462.755 2685.94L523.807 2712.84C523.685 2713.39 523.442 2713.94 523.442 2714.55C523.442 2718.88 526.908 2722.36 531.226 2722.36C535.543 2722.36 539.009 2718.88 539.009 2714.55C539.009 2713.94 538.827 2713.45 538.644 2712.84L599.697 2685.94C601.095 2687.96 603.345 2689.36 605.96 2689.36C610.277 2689.36 613.743 2685.88 613.743 2681.55C613.743 2677.77 611.007 2674.72 607.419 2674.05V2590.25C611.007 2589.51 613.743 2586.52 613.743 2582.74C613.743 2578.41 610.277 2574.94 605.96 2574.94C601.642 2574.94 598.176 2578.41 598.176 2582.74C598.176 2586.52 600.913 2589.57 604.5 2590.25V2674.05C600.913 2674.78 598.176 2677.77 598.176 2681.55ZM299.119 2319.13C299.119 2314.8 302.585 2311.33 306.902 2311.33C309.517 2311.33 311.767 2312.73 313.165 2314.74L374.217 2287.84C374.096 2287.3 373.853 2286.75 373.853 2286.14C373.853 2282.36 376.589 2279.31 380.177 2278.64V2195.32C376.589 2194.59 373.853 2191.6 373.853 2187.82C373.853 2183.49 377.319 2180.01 381.636 2180.01C384.129 2180.01 386.197 2181.23 387.656 2183.06L448.951 2156.04C448.83 2155.49 448.587 2154.94 448.587 2154.33C448.587 2150 452.053 2146.53 456.37 2146.53C460.688 2146.53 464.154 2150 464.154 2154.33C464.154 2158.11 461.417 2161.16 457.83 2161.83V2246C461.417 2246.74 464.154 2249.72 464.154 2253.51C464.154 2257.84 460.688 2261.31 456.37 2261.31C453.634 2261.31 451.323 2259.79 449.924 2257.59L389.055 2284.43C389.176 2284.98 389.42 2285.53 389.42 2286.14C389.42 2286.75 389.237 2287.24 389.055 2287.84L450.107 2314.74C451.505 2312.73 453.755 2311.33 456.37 2311.33C458.985 2311.33 461.235 2312.73 462.633 2314.74L523.685 2287.84C523.564 2287.3 523.321 2286.75 523.321 2286.14C523.321 2281.81 526.787 2278.33 531.104 2278.33C535.422 2278.33 538.888 2281.81 538.888 2286.14C538.888 2289.92 536.151 2292.97 532.564 2293.64V2377.44C536.151 2378.17 538.888 2381.16 538.888 2384.94C538.888 2389.28 535.422 2392.75 531.104 2392.75C526.787 2392.75 523.321 2389.28 523.321 2384.94C523.321 2381.16 526.057 2378.11 529.645 2377.44V2293.64C527.638 2293.21 525.935 2292.11 524.841 2290.47L463.789 2317.37C463.91 2317.91 464.154 2318.46 464.154 2319.07C464.154 2323.4 460.688 2326.88 456.37 2326.88C452.053 2326.88 448.587 2323.4 448.587 2319.07C448.587 2318.46 448.769 2317.98 448.951 2317.37L387.899 2290.47C386.501 2292.48 384.251 2293.88 381.636 2293.88C379.021 2293.88 376.771 2292.48 375.373 2290.47L314.321 2317.37C314.442 2317.91 314.686 2318.46 314.686 2319.07C314.686 2323.4 311.22 2326.88 306.902 2326.88C302.585 2326.88 299.119 2323.4 299.119 2319.07V2319.13ZM383.096 2278.7C385.102 2279.12 386.805 2280.22 387.899 2281.87L448.891 2254.97C448.83 2254.48 448.587 2254.12 448.587 2253.63C448.587 2249.85 451.323 2246.8 454.911 2246.13V2161.96C452.904 2161.53 451.201 2160.43 450.107 2158.78L388.994 2185.74C389.176 2186.41 389.42 2187.15 389.42 2187.88C389.42 2191.66 386.683 2194.71 383.096 2195.38V2278.7ZM7.78353 2162.08C12.101 2162.08 15.5671 2158.6 15.5671 2154.27C15.5671 2153.66 15.3846 2153.17 15.2022 2152.56L76.3759 2125.61C77.7745 2127.5 79.9636 2128.84 82.5176 2128.84C85.0715 2128.84 87.2606 2127.5 88.6592 2125.61L149.833 2152.56C149.711 2153.11 149.468 2153.66 149.468 2154.27C149.468 2158.6 152.934 2162.08 157.252 2162.08C161.569 2162.08 165.035 2158.6 165.035 2154.27C165.035 2150.49 162.299 2147.44 158.711 2146.77V2055.46C158.711 2054.67 158.042 2054 157.252 2054C156.461 2054 155.792 2054.67 155.792 2055.46V2146.77C153.785 2147.2 152.083 2148.29 150.988 2149.94L89.8754 2123.04C90.0578 2122.43 90.2403 2121.82 90.2403 2121.15C90.2403 2116.82 86.7742 2113.35 82.4567 2113.35C78.1393 2113.35 74.6732 2116.82 74.6732 2121.15C74.6732 2121.82 74.9165 2122.43 75.0381 2123.04L14.0468 2149.94C12.6482 2147.93 10.3983 2146.53 7.78353 2146.53C3.4661 2146.53 0 2150 0 2154.33C0 2158.66 3.4661 2162.14 7.78353 2162.14V2162.08ZM450.046 2784.63C451.445 2786.64 453.695 2788.04 456.309 2788.04C460.627 2788.04 464.093 2784.57 464.093 2780.24C464.093 2775.91 460.627 2772.43 456.309 2772.43C451.992 2772.43 448.526 2775.91 448.526 2780.24C448.526 2780.85 448.708 2781.33 448.891 2781.94L313.105 2841.78C311.706 2839.77 309.456 2838.36 306.841 2838.36C302.524 2838.36 299.058 2841.84 299.058 2846.17C299.058 2850.5 302.524 2853.98 306.841 2853.98C311.159 2853.98 314.625 2850.5 314.625 2846.17C314.625 2845.56 314.382 2845.07 314.26 2844.46L450.046 2784.63Z" fill="#1C1C1C"/>
</g>
<g clip-path="url(#clip3_1_2377)">
<path d="M735.215 526.914C735.332 527.463 735.567 528.011 735.567 528.621C735.567 532.952 732.226 536.428 728.065 536.428C723.903 536.428 720.562 532.952 720.562 528.621C720.562 528.011 720.738 527.524 720.914 526.914L662.069 500.016C660.721 502.029 658.552 503.432 656.032 503.432C651.87 503.432 648.53 499.955 648.53 495.625C648.53 491.843 651.167 488.793 654.625 488.122V404.319C651.167 403.587 648.53 400.598 648.53 396.817C648.53 392.486 651.87 389.01 656.032 389.01C658.552 389.01 660.721 390.413 662.069 392.425L720.914 365.528C720.797 364.979 720.562 364.43 720.562 363.82C720.562 360.038 723.2 356.989 726.658 356.318V272.514C723.2 271.782 720.562 268.794 720.562 265.012C720.562 260.682 723.903 257.205 728.065 257.205C732.226 257.205 735.567 260.682 735.567 265.012C735.567 268.794 732.929 271.843 729.471 272.514V356.318C732.929 357.05 735.567 360.038 735.567 363.82C735.567 368.15 732.226 371.627 728.065 371.627C725.544 371.627 723.376 370.224 722.028 368.211L663.182 395.109C663.3 395.658 663.534 396.207 663.534 396.817C663.534 400.598 660.897 403.648 657.439 404.319V488.122C660.897 488.854 663.534 491.843 663.534 495.625C663.534 496.234 663.358 496.722 663.182 497.332L722.028 524.23C723.376 522.217 725.544 520.814 728.065 520.814C730.585 520.814 732.754 522.217 734.102 524.23L792.947 497.332C792.83 496.783 792.595 496.234 792.595 495.625C792.595 491.294 795.936 487.817 800.097 487.817C804.259 487.817 807.6 491.294 807.6 495.625C807.6 496.234 807.424 496.722 807.248 497.332L866.093 524.23C867.441 522.217 869.61 520.814 872.13 520.814C876.292 520.814 879.633 524.291 879.633 528.621C879.633 532.952 876.292 536.428 872.13 536.428C867.969 536.428 864.628 532.952 864.628 528.621C864.628 528.011 864.804 527.524 864.98 526.914L806.134 500.016C804.786 502.029 802.618 503.432 800.097 503.432C797.577 503.432 795.409 502.029 794.061 500.016L735.215 526.914ZM938.185 862.433C939.533 864.446 941.701 865.849 944.222 865.849C946.742 865.849 948.911 864.446 950.259 862.433L1009.1 889.331C1008.99 889.88 1008.75 890.428 1008.75 891.038C1008.75 895.369 1012.09 898.845 1016.25 898.845C1020.42 898.845 1023.76 895.369 1023.76 891.038C1023.76 886.708 1020.42 883.231 1016.25 883.231C1013.68 883.231 1011.57 884.634 1010.22 886.647L951.372 859.749C951.49 859.2 951.724 858.651 951.724 858.042C951.724 853.711 948.383 850.234 944.222 850.234C940.06 850.234 936.72 853.711 936.72 858.042C936.72 858.651 936.895 859.139 937.071 859.749L878.226 886.647C877.112 885 875.53 883.902 873.596 883.475V799.672C877.054 798.94 879.691 795.951 879.691 792.17C879.691 787.839 876.35 784.363 872.189 784.363C869.669 784.363 867.5 785.766 866.152 787.778L807.307 760.881C807.424 760.332 807.658 759.783 807.658 759.173C807.658 755.391 805.021 752.342 801.563 751.671V667.867C805.021 667.135 807.658 664.147 807.658 660.365C807.658 656.035 804.318 652.558 800.156 652.558C795.995 652.558 792.654 656.035 792.654 660.365C792.654 664.147 795.291 667.196 798.749 667.867V751.671C795.291 752.403 792.654 755.391 792.654 759.173C792.654 763.503 795.995 766.98 800.156 766.98C802.676 766.98 804.845 765.577 806.193 763.564L865.038 790.462C864.921 791.011 864.687 791.56 864.687 792.17C864.687 795.951 867.324 799.001 870.782 799.672V883.475C867.324 884.207 864.687 887.196 864.687 890.977C864.687 895.308 868.028 898.784 872.189 898.784C876.35 898.784 879.691 895.308 879.691 890.977C879.691 890.368 879.515 889.88 879.339 889.27L938.185 862.372V862.433ZM145.589 730.689C146.938 732.702 149.106 734.105 151.626 734.105C155.788 734.105 159.129 730.628 159.129 726.298C159.129 722.516 156.491 719.467 153.033 718.796V536.123C156.491 535.392 159.129 532.403 159.129 528.621C159.129 528.011 158.894 527.524 158.777 526.914L217.622 500.016C218.97 502.029 221.139 503.432 223.659 503.432C227.821 503.432 231.161 499.955 231.161 495.625C231.161 491.843 228.524 488.793 225.066 488.122V404.319C228.524 403.587 231.161 400.598 231.161 396.817C231.161 392.486 227.821 389.01 223.659 389.01C219.498 389.01 216.157 392.486 216.157 396.817C216.157 400.598 218.795 403.648 222.253 404.319V488.122C218.795 488.854 216.157 491.843 216.157 495.625C216.157 496.234 216.333 496.722 216.509 497.332L157.663 524.23C156.315 522.217 154.147 520.814 151.626 520.814C147.465 520.814 144.124 524.291 144.124 528.621C144.124 532.403 146.762 535.453 150.22 536.123V718.796C146.762 719.528 144.124 722.516 144.124 726.298C144.124 726.908 144.3 727.396 144.476 728.006L85.6305 754.903C84.2825 752.891 82.1139 751.488 79.5936 751.488C75.4322 751.488 72.0914 754.964 72.0914 759.295C72.0914 763.625 75.4322 767.102 79.5936 767.102C83.755 767.102 87.0958 763.625 87.0958 759.295C87.0958 758.685 86.92 758.197 86.7441 757.587L145.589 730.689ZM792.654 232.137C792.654 236.468 795.995 239.944 800.156 239.944C804.318 239.944 807.658 236.468 807.658 232.137C807.658 228.356 805.021 225.306 801.563 224.635V141.502C805.021 140.771 807.658 137.782 807.658 134C807.658 133.146 807.424 132.415 807.189 131.683L866.152 104.724C867.5 106.737 869.669 108.14 872.189 108.14C876.35 108.14 879.691 104.663 879.691 100.333C879.691 96.551 877.054 93.5014 873.596 92.8305V1.46382C873.596 0.670917 872.951 0 872.189 0C871.427 0 870.782 0.670917 870.782 1.46382V92.7695C867.324 93.5014 864.687 96.49 864.687 100.272C864.687 100.881 864.921 101.369 865.038 101.979L805.841 129.06C804.493 127.352 802.442 126.193 800.156 126.193C795.995 126.193 792.654 129.67 792.654 134C792.654 137.782 795.291 140.832 798.749 141.502V224.635C795.291 225.367 792.654 228.356 792.654 232.137ZM944.28 75.2037C946.801 75.2037 948.969 73.8008 950.317 71.7881L1009.16 98.6858C1009.05 99.2347 1008.81 99.7836 1008.81 100.394C1008.81 104.724 1012.15 108.201 1016.31 108.201C1020.47 108.201 1023.82 104.724 1023.82 100.394C1023.82 96.0631 1020.47 92.5865 1016.31 92.5865C1013.79 92.5865 1011.62 93.9893 1010.28 96.0021L951.431 69.1044C951.548 68.5555 951.783 68.0066 951.783 67.3966C951.783 63.0662 948.442 59.5896 944.28 59.5896C940.119 59.5896 936.778 63.0662 936.778 67.3966C936.778 71.7271 940.119 75.2037 944.28 75.2037ZM1225.03 331.189C1225.03 335.519 1228.37 338.996 1232.53 338.996C1235.17 338.996 1237.33 337.532 1238.68 335.397L1297.41 362.234C1297.29 362.783 1297.06 363.332 1297.06 363.942C1297.06 368.272 1300.4 371.749 1304.56 371.749C1308.72 371.749 1312.06 368.272 1312.06 363.942C1312.06 359.611 1308.72 356.135 1304.56 356.135C1302.04 356.135 1299.87 357.538 1298.52 359.55L1239.74 332.653C1239.86 332.165 1240.03 331.677 1240.03 331.128C1240.03 327.346 1237.39 324.297 1233.94 323.626V239.578C1237.39 238.846 1240.03 235.858 1240.03 232.076C1240.03 227.746 1236.69 224.269 1232.53 224.269C1228.37 224.269 1225.03 227.746 1225.03 232.076C1225.03 235.858 1227.66 238.907 1231.12 239.578V323.626C1227.66 324.358 1225.03 327.346 1225.03 331.128V331.189ZM1087 404.38V488.183C1085.06 488.61 1083.42 489.708 1082.37 491.355L1023.52 464.457C1023.64 463.908 1023.87 463.36 1023.87 462.75C1023.87 458.419 1020.53 454.943 1016.37 454.943C1012.21 454.943 1008.87 458.419 1008.87 462.75C1008.87 467.08 1012.21 470.557 1016.37 470.557C1018.89 470.557 1021.06 469.154 1022.41 467.141L1081.25 494.039C1081.14 494.588 1080.9 495.137 1080.9 495.746C1080.9 500.077 1084.24 503.553 1088.4 503.553C1092.57 503.553 1095.91 500.077 1095.91 495.746C1095.91 491.965 1093.27 488.915 1089.81 488.244V404.441C1093.27 403.709 1095.91 400.72 1095.91 396.939C1095.91 396.329 1095.73 395.841 1095.56 395.231L1154.4 368.333C1155.75 370.346 1157.92 371.749 1160.44 371.749C1164.6 371.749 1167.94 368.272 1167.94 363.942C1167.94 359.611 1164.6 356.135 1160.44 356.135C1156.28 356.135 1152.94 359.611 1152.94 363.942C1152.94 364.552 1153.11 365.04 1153.29 365.65L1094.44 392.547C1093.09 390.535 1090.92 389.132 1088.4 389.132C1084.24 389.132 1080.9 392.608 1080.9 396.939C1080.9 400.72 1083.54 403.77 1087 404.441V404.38ZM1378.06 751.793V667.989C1381.52 667.257 1384.16 664.269 1384.16 660.487C1384.16 656.157 1380.81 652.68 1376.65 652.68C1374.13 652.68 1371.96 654.083 1370.62 656.096L1311.77 629.198C1311.89 628.649 1312.12 628.1 1312.12 627.49C1312.12 623.16 1308.78 619.683 1304.62 619.683C1300.46 619.683 1297.12 623.16 1297.12 627.49C1297.12 631.272 1299.76 634.321 1303.21 634.992V718.796C1299.76 719.528 1297.12 722.516 1297.12 726.298C1297.12 726.908 1297.35 727.396 1297.47 728.006L1238.62 754.903C1237.28 752.891 1235.11 751.488 1232.59 751.488C1230.07 751.488 1227.9 752.891 1226.55 754.903L1167.71 728.006C1167.82 727.457 1168.06 726.908 1168.06 726.298C1168.06 721.967 1164.72 718.491 1160.55 718.491C1156.39 718.491 1153.05 721.967 1153.05 726.298C1153.05 730.628 1156.39 734.105 1160.55 734.105C1163.07 734.105 1165.24 732.702 1166.59 730.689L1225.44 757.587C1225.32 758.136 1225.09 758.685 1225.09 759.295C1225.09 763.625 1228.43 767.102 1232.59 767.102C1236.75 767.102 1240.09 763.625 1240.09 759.295C1240.09 758.685 1239.91 758.197 1239.74 757.587L1298.58 730.689C1299.93 732.702 1302.1 734.105 1304.62 734.105C1308.78 734.105 1312.12 730.628 1312.12 726.298C1312.12 722.516 1309.48 719.467 1306.03 718.796V634.992C1307.96 634.565 1309.6 633.467 1310.66 631.821L1369.5 658.718C1369.39 659.267 1369.15 659.816 1369.15 660.426C1369.15 664.208 1371.79 667.257 1375.25 667.928V751.732C1371.79 752.464 1369.15 755.452 1369.15 759.234C1369.15 759.844 1369.33 760.332 1369.5 760.942L1310.36 787.961C1309.02 786.192 1306.96 784.973 1304.62 784.973C1300.46 784.973 1297.12 788.449 1297.12 792.78C1297.12 796.561 1299.76 799.611 1303.21 800.282V883.536C1299.76 884.268 1297.12 887.257 1297.12 891.038C1297.12 895.369 1300.46 898.845 1304.62 898.845C1308.78 898.845 1312.12 895.369 1312.12 891.038C1312.12 887.257 1309.48 884.207 1306.03 883.536V800.282C1309.48 799.55 1312.12 796.561 1312.12 792.78C1312.12 791.987 1311.89 791.255 1311.71 790.523L1370.67 763.564C1372.02 765.577 1374.19 766.98 1376.71 766.98C1380.87 766.98 1384.21 763.503 1384.21 759.173C1384.21 755.391 1381.58 752.342 1378.12 751.671L1378.06 751.793ZM1160.5 982.161C1156.33 982.161 1152.99 985.638 1152.99 989.968C1152.99 990.578 1153.17 991.066 1153.35 991.676L1021.82 1051.81C1020.47 1050.29 1018.54 1049.31 1016.37 1049.31C1012.21 1049.31 1008.87 1052.79 1008.87 1057.12C1008.87 1060.9 1011.51 1063.95 1014.97 1064.62V1147.27C1011.51 1148 1008.87 1150.99 1008.87 1154.77C1008.87 1159.1 1012.21 1162.58 1016.37 1162.58C1020.53 1162.58 1023.87 1159.1 1023.87 1154.77C1023.87 1150.99 1021.24 1147.94 1017.78 1147.27V1064.62C1021.24 1063.89 1023.87 1060.9 1023.87 1057.12C1023.87 1056.15 1023.64 1055.23 1023.35 1054.32L1154.46 994.36C1155.81 996.372 1157.98 997.775 1160.5 997.775C1164.66 997.775 1168 994.299 1168 989.968C1168 985.638 1164.66 982.161 1160.5 982.161ZM1304.62 1146.9C1302.1 1146.9 1299.93 1148.3 1298.58 1150.32L1239.74 1123.42C1239.86 1122.87 1240.09 1122.32 1240.09 1121.71C1240.09 1117.38 1236.75 1113.9 1232.59 1113.9C1228.43 1113.9 1225.09 1117.38 1225.09 1121.71C1225.09 1126.04 1228.43 1129.52 1232.59 1129.52C1235.11 1129.52 1237.28 1128.12 1238.62 1126.1L1297.47 1153C1297.35 1153.55 1297.12 1154.1 1297.12 1154.71C1297.12 1159.04 1300.46 1162.52 1304.62 1162.52C1308.78 1162.52 1312.12 1159.04 1312.12 1154.71C1312.12 1150.38 1308.78 1146.9 1304.62 1146.9ZM1304.62 1410.51C1300.46 1410.51 1297.12 1413.99 1297.12 1418.32C1297.12 1418.93 1297.29 1419.42 1297.47 1420.03L1238.62 1446.92C1237.28 1444.91 1235.11 1443.51 1232.59 1443.51C1228.43 1443.51 1225.09 1446.98 1225.09 1451.31C1225.09 1455.65 1228.43 1459.12 1232.59 1459.12C1236.75 1459.12 1240.09 1455.65 1240.09 1451.31C1240.09 1450.7 1239.86 1450.22 1239.74 1449.61L1298.58 1422.71C1299.93 1424.72 1302.1 1426.13 1304.62 1426.13C1308.78 1426.13 1312.12 1422.65 1312.12 1418.32C1312.12 1413.99 1308.78 1410.51 1304.62 1410.51ZM1088.46 1278.71C1084.3 1278.71 1080.96 1282.18 1080.96 1286.51C1080.96 1287.12 1081.2 1287.61 1081.31 1288.22L1022.47 1315.12C1021.12 1313.11 1018.95 1311.7 1016.43 1311.7C1013.91 1311.7 1011.74 1313.11 1010.39 1315.12L951.548 1288.22C951.665 1287.67 951.9 1287.12 951.9 1286.51C951.9 1282.18 948.559 1278.71 944.398 1278.71C940.236 1278.71 936.895 1282.18 936.895 1286.51C936.895 1290.84 940.236 1294.32 944.398 1294.32C946.918 1294.32 949.086 1292.92 950.435 1290.9L1009.28 1317.8C1009.16 1318.35 1008.93 1318.9 1008.93 1319.51C1008.93 1323.84 1012.27 1327.32 1016.43 1327.32C1020.59 1327.32 1023.93 1323.84 1023.93 1319.51C1023.93 1318.9 1023.76 1318.41 1023.58 1317.8L1082.43 1290.9C1083.77 1292.92 1085.94 1294.32 1088.46 1294.32C1092.62 1294.32 1095.97 1290.84 1095.97 1286.51C1095.97 1282.18 1092.62 1278.71 1088.46 1278.71ZM657.497 1294.02V1378.79C660.955 1379.53 663.593 1382.52 663.593 1386.3C663.593 1390.63 660.252 1394.1 656.091 1394.1C653.219 1394.1 650.815 1392.4 649.585 1389.96L591.208 1416.67C591.325 1417.22 591.56 1417.77 591.56 1418.38C591.56 1422.71 588.219 1426.19 584.058 1426.19C579.896 1426.19 576.555 1422.71 576.555 1418.38C576.555 1417.77 576.731 1417.28 576.907 1416.67L517.769 1389.65C516.421 1391.42 514.369 1392.64 512.025 1392.64C507.863 1392.64 504.523 1389.16 504.523 1384.83C504.523 1381.05 507.16 1378 510.618 1377.33V1294.08C508.684 1293.65 507.043 1292.55 505.988 1290.9L447.143 1317.8C447.26 1318.35 447.494 1318.9 447.494 1319.51C447.494 1323.84 444.153 1327.32 439.992 1327.32C435.831 1327.32 432.49 1323.84 432.49 1319.51C432.49 1318.9 432.666 1318.41 432.842 1317.8L373.996 1290.9C372.648 1292.92 370.48 1294.32 367.959 1294.32C363.798 1294.32 360.457 1290.84 360.457 1286.51C360.457 1282.73 363.095 1279.68 366.553 1279.01V1195.76C363.095 1195.02 360.457 1192.04 360.457 1188.25C360.457 1183.92 363.798 1180.45 367.959 1180.45C372.121 1180.45 375.461 1183.92 375.461 1188.25C375.461 1192.04 372.824 1195.09 369.366 1195.76V1279.01C372.824 1279.74 375.461 1282.73 375.461 1286.51C375.461 1287.12 375.286 1287.61 375.11 1288.22L433.955 1315.12C435.303 1313.11 437.472 1311.7 439.992 1311.7C442.512 1311.7 444.681 1313.11 446.029 1315.12L504.874 1288.22C504.757 1287.67 504.523 1287.12 504.523 1286.51C504.523 1282.73 507.16 1279.68 510.618 1279.01V1195.21C507.16 1194.48 504.523 1191.49 504.523 1187.71C504.523 1183.38 507.863 1179.9 512.025 1179.9C516.186 1179.9 519.527 1183.38 519.527 1187.71C519.527 1191.49 516.89 1194.54 513.432 1195.21V1279.01C516.89 1279.74 519.527 1282.73 519.527 1286.51C519.527 1287.12 519.351 1287.61 519.175 1288.22L578.021 1315.12C579.369 1313.11 581.537 1311.7 584.058 1311.7C586.578 1311.7 588.747 1313.11 590.095 1315.12L648.94 1288.22C648.823 1287.67 648.588 1287.12 648.588 1286.51C648.588 1282.18 651.929 1278.71 656.091 1278.71C660.252 1278.71 663.593 1282.18 663.593 1286.51C663.593 1290.29 660.955 1293.34 657.497 1294.02ZM654.684 1294.02C652.75 1293.59 651.109 1292.49 650.054 1290.84L591.208 1317.74C591.325 1318.29 591.56 1318.84 591.56 1319.45C591.56 1323.78 588.219 1327.26 584.058 1327.26C579.896 1327.26 576.555 1323.78 576.555 1319.45C576.555 1318.84 576.731 1318.35 576.907 1317.74L518.062 1290.84C516.948 1292.49 515.366 1293.59 513.432 1294.02V1377.27C516.89 1378 519.527 1380.99 519.527 1384.77C519.527 1385.57 519.293 1386.3 519.117 1387.03L578.079 1413.99C579.427 1411.97 581.596 1410.57 584.116 1410.57C586.637 1410.57 588.805 1411.97 590.153 1413.99L648.823 1387.15C648.823 1387.15 648.647 1386.6 648.647 1386.3C648.647 1382.52 651.284 1379.47 654.742 1378.79V1294.02H654.684ZM663.593 1022.9C663.593 1018.57 660.252 1015.1 656.091 1015.1C653.57 1015.1 651.402 1016.5 650.054 1018.51L591.208 991.615C591.325 991.066 591.56 990.517 591.56 989.907C591.56 986.126 588.922 983.076 585.464 982.405V898.602C588.922 897.87 591.56 894.881 591.56 891.099C591.56 886.769 588.219 883.292 584.058 883.292C579.896 883.292 576.555 886.769 576.555 891.099C576.555 894.881 579.193 897.931 582.651 898.602V982.405C579.193 983.137 576.555 986.126 576.555 989.907C576.555 994.238 579.896 997.714 584.058 997.714C586.578 997.714 588.747 996.311 590.095 994.299L648.94 1021.2C648.823 1021.75 648.588 1022.29 648.588 1022.9C648.588 1026.69 651.226 1029.74 654.684 1030.41V1114.21C651.226 1114.94 648.588 1117.93 648.588 1121.71C648.588 1122.32 648.764 1122.81 648.94 1123.42L590.095 1150.32C588.747 1148.3 586.578 1146.9 584.058 1146.9C579.896 1146.9 576.555 1150.38 576.555 1154.71C576.555 1159.04 579.896 1162.52 584.058 1162.52C588.219 1162.52 591.56 1159.04 591.56 1154.71C591.56 1154.1 591.325 1153.61 591.208 1153L650.054 1126.1C651.402 1128.12 653.57 1129.52 656.091 1129.52C660.252 1129.52 663.593 1126.04 663.593 1121.71C663.593 1117.93 660.955 1114.88 657.497 1114.21V1030.41C660.955 1029.67 663.593 1026.69 663.593 1022.9ZM223.776 1443.45C221.256 1443.45 219.088 1444.85 217.74 1446.86L158.894 1419.96C159.011 1419.42 159.246 1418.87 159.246 1418.26C159.246 1413.93 155.905 1410.45 151.744 1410.45C147.582 1410.45 144.241 1413.93 144.241 1418.26C144.241 1422.59 147.582 1426.06 151.744 1426.06C154.264 1426.06 156.433 1424.66 157.781 1422.65L216.626 1449.55C216.509 1450.1 216.274 1450.64 216.274 1451.25C216.274 1455.58 219.615 1459.06 223.776 1459.06C227.938 1459.06 231.279 1455.58 231.279 1451.25C231.279 1446.92 227.938 1443.45 223.776 1443.45ZM79.6522 1015.16C77.132 1015.16 74.9633 1016.56 73.6153 1018.57L14.7699 991.676C14.8872 991.127 15.1216 990.578 15.1216 989.968C15.1216 986.187 12.4841 983.137 9.02608 982.466V799.794C12.4841 799.062 15.1216 796.073 15.1216 792.292C15.1216 787.961 11.7808 784.485 7.61942 784.485C3.45804 784.485 0.117222 787.961 0.117222 792.292C0.117222 796.073 2.75471 799.123 6.21276 799.794V982.466C2.75471 983.198 0.117222 986.187 0.117222 989.968C0.117222 994.299 3.45804 997.775 7.61942 997.775C10.1397 997.775 12.3083 996.372 13.6563 994.36L72.5017 1021.26C72.3845 1021.81 72.15 1022.36 72.15 1022.97C72.15 1027.3 75.4909 1030.77 79.6522 1030.77C83.8136 1030.77 87.1544 1027.3 87.1544 1022.97C87.1544 1018.63 83.8136 1015.16 79.6522 1015.16ZM303.311 891.16C303.311 886.83 299.971 883.353 295.809 883.353C291.648 883.353 288.307 886.83 288.307 891.16C288.307 894.942 290.945 897.992 294.403 898.662V982.466C290.945 983.198 288.307 986.187 288.307 989.968C288.307 990.578 288.483 991.066 288.659 991.676L229.813 1018.57C228.465 1016.56 226.297 1015.16 223.776 1015.16C219.615 1015.16 216.274 1018.63 216.274 1022.97C216.274 1026.75 218.912 1029.8 222.37 1030.47V1114.27C218.912 1115 216.274 1117.99 216.274 1121.77C216.274 1126.1 219.615 1129.58 223.776 1129.58C227.938 1129.58 231.279 1126.1 231.279 1121.77C231.279 1117.99 228.641 1114.94 225.183 1114.27V1030.47C228.641 1029.74 231.279 1026.75 231.279 1022.97C231.279 1022.36 231.103 1021.87 230.927 1021.26L289.772 994.36C291.12 996.372 293.289 997.775 295.809 997.775C299.971 997.775 303.311 994.299 303.311 989.968C303.311 986.187 300.674 983.137 297.216 982.466V898.662C300.674 897.931 303.311 894.942 303.311 891.16ZM576.555 627.551C576.555 628.161 576.731 628.649 576.907 629.259L518.062 656.157C516.714 654.144 514.545 652.741 512.025 652.741C509.505 652.741 507.336 654.144 505.988 656.157L447.143 629.259C447.26 628.71 447.494 628.161 447.494 627.551C447.494 623.221 444.153 619.744 439.992 619.744C435.831 619.744 432.49 623.221 432.49 627.551C432.49 631.882 435.831 635.358 439.992 635.358C442.512 635.358 444.681 633.955 446.029 631.943L504.874 658.84C504.757 659.389 504.523 659.938 504.523 660.548C504.523 664.879 507.863 668.355 512.025 668.355C516.186 668.355 519.527 664.879 519.527 660.548C519.527 659.938 519.351 659.45 519.175 658.84L578.021 631.943C579.369 633.955 581.537 635.358 584.058 635.358C588.219 635.358 591.56 631.882 591.56 627.551C591.56 623.77 588.922 620.72 585.464 620.049V536.245C588.922 535.514 591.56 532.525 591.56 528.743C591.56 524.413 588.219 520.936 584.058 520.936C579.896 520.936 576.555 524.413 576.555 528.743C576.555 532.525 579.193 535.575 582.651 536.245V620.049C579.193 620.781 576.555 623.77 576.555 627.551ZM288.307 265.134C288.307 260.804 291.648 257.327 295.809 257.327C298.33 257.327 300.498 258.73 301.846 260.743L360.692 233.845C360.574 233.296 360.34 232.747 360.34 232.137C360.34 228.356 362.977 225.306 366.435 224.635V141.319C362.977 140.588 360.34 137.599 360.34 133.817C360.34 129.487 363.681 126.01 367.842 126.01C370.245 126.01 372.238 127.23 373.645 129.06L432.724 102.04C432.607 101.491 432.373 100.942 432.373 100.333C432.373 96.0021 435.714 92.5255 439.875 92.5255C444.036 92.5255 447.377 96.0021 447.377 100.333C447.377 104.114 444.74 107.164 441.282 107.835V192.004C444.74 192.736 447.377 195.725 447.377 199.506C447.377 203.837 444.036 207.313 439.875 207.313C437.237 207.313 435.01 205.788 433.662 203.593L374.993 230.429C375.11 230.978 375.344 231.527 375.344 232.137C375.344 232.747 375.168 233.235 374.993 233.845L433.838 260.743C435.186 258.73 437.355 257.327 439.875 257.327C442.395 257.327 444.564 258.73 445.912 260.743L504.757 233.845C504.64 233.296 504.405 232.747 504.405 232.137C504.405 227.807 507.746 224.33 511.908 224.33C516.069 224.33 519.41 227.807 519.41 232.137C519.41 235.919 516.772 238.968 513.314 239.639V323.443C516.772 324.175 519.41 327.163 519.41 330.945C519.41 335.275 516.069 338.752 511.908 338.752C507.746 338.752 504.405 335.275 504.405 330.945C504.405 327.163 507.043 324.114 510.501 323.443V239.639C508.567 239.212 506.926 238.114 505.871 236.468L447.025 263.365C447.143 263.914 447.377 264.463 447.377 265.073C447.377 269.404 444.036 272.88 439.875 272.88C435.714 272.88 432.373 269.404 432.373 265.073C432.373 264.463 432.548 263.975 432.724 263.365L373.879 236.468C372.531 238.48 370.362 239.883 367.842 239.883C365.322 239.883 363.153 238.48 361.805 236.468L302.96 263.365C303.077 263.914 303.311 264.463 303.311 265.073C303.311 269.404 299.971 272.88 295.809 272.88C291.648 272.88 288.307 269.404 288.307 265.073V265.134ZM369.249 224.696C371.183 225.123 372.824 226.221 373.879 227.868L432.666 200.97C432.607 200.482 432.373 200.116 432.373 199.628C432.373 195.847 435.01 192.797 438.468 192.126V107.957C436.534 107.53 434.893 106.432 433.838 104.785L374.934 131.744C375.11 132.415 375.344 133.146 375.344 133.878C375.344 137.66 372.707 140.71 369.249 141.38V224.696ZM7.5022 108.079C11.6636 108.079 15.0044 104.602 15.0044 100.272C15.0044 99.6616 14.8286 99.1737 14.6527 98.5638L73.6153 71.6051C74.9633 73.4959 77.0733 74.8377 79.535 74.8377C81.9967 74.8377 84.1067 73.4959 85.4547 71.6051L144.417 98.5638C144.3 99.1127 144.066 99.6616 144.066 100.272C144.066 104.602 147.406 108.079 151.568 108.079C155.729 108.079 159.07 104.602 159.07 100.272C159.07 96.49 156.433 93.4404 152.974 92.7695V1.46382C152.974 0.670917 152.33 0 151.568 0C150.806 0 150.161 0.670917 150.161 1.46382V92.7695C148.227 93.1964 146.586 94.2943 145.531 95.9411L86.6269 69.0434C86.8027 68.4335 86.9786 67.8236 86.9786 67.1527C86.9786 62.8222 83.6378 59.3456 79.4764 59.3456C75.315 59.3456 71.9742 62.8222 71.9742 67.1527C71.9742 67.8236 72.2086 68.4335 72.3259 69.0434L13.5391 95.9411C12.1911 93.9283 10.0225 92.5255 7.5022 92.5255C3.34082 92.5255 0 96.0021 0 100.333C0 104.663 3.34082 108.14 7.5022 108.14V108.079ZM433.779 730.628C435.127 732.641 437.296 734.044 439.816 734.044C443.978 734.044 447.318 730.567 447.318 726.237C447.318 721.906 443.978 718.43 439.816 718.43C435.655 718.43 432.314 721.906 432.314 726.237C432.314 726.847 432.49 727.335 432.666 727.945L301.788 787.778C300.44 785.766 298.271 784.363 295.751 784.363C291.589 784.363 288.248 787.839 288.248 792.17C288.248 796.5 291.589 799.977 295.751 799.977C299.912 799.977 303.253 796.5 303.253 792.17C303.253 791.56 303.018 791.072 302.901 790.462L433.779 730.628Z" fill="#1C1C1C"/>
</g>
<defs>
<clipPath id="clip0_1_2377">
<rect width="1436" height="1459" fill="white" transform="translate(2 5519)"/>
</clipPath>
<clipPath id="clip1_1_2377">
<rect width="1436" height="1459" fill="white" transform="translate(0 2054)"/>
</clipPath>
<clipPath id="clip2_1_2377">
<rect width="1436" height="1459" fill="white" transform="translate(0 2054)"/>
</clipPath>
<clipPath id="clip3_1_2377">
<rect width="1440" height="1459" fill="white"/>
</clipPath>
</defs>
</svg>
