<svg width="134" height="40" viewBox="0 0 134 40" fill="none" xmlns="http://www.w3.org/2000/svg">
<path d="M121.23 15.636L119.072 15.6241C119.948 17.7032 120.292 19.0893 120.115 21.1861C119.582 27.5656 114.677 32.636 108.702 33.0625C101.528 33.5719 95.5638 27.4886 95.5638 19.9185C95.5638 12.6447 101.073 6.74498 107.864 6.74498C108.397 6.74498 109.168 6.8279 109.168 6.8279L109.906 3.00141C109.906 3.00141 108.613 2.87109 107.953 2.87109C106.122 2.87109 104.718 4.10908 104.297 5.24044C104.03 5.95717 102.111 6.1171 99.442 8.22582C98.4378 9.01955 97.0175 10.8203 96.0521 12.0997C95.525 12.7927 94.7371 13.1955 93.8994 13.1955H91.042C89.0835 13.1955 87.4967 14.8955 87.4967 16.9924V22.8684C87.4967 24.9653 89.0835 26.6653 91.042 26.6653H91.5968C92.4846 26.6653 92.995 26.7008 93.6053 27.6604L93.7939 27.9743C96.4737 33.412 101.806 37.12 107.947 37.12C110.455 37.12 111.848 34.3064 111.848 34.3064C111.848 34.3064 112.303 34.1583 112.996 33.8562C113.912 33.4771 114.777 32.9973 115.587 32.4287C116.381 31.8897 117.185 31.2263 117.868 30.4266C117.873 30.4207 117.879 30.4088 117.89 30.4029C118.128 30.1423 118.362 29.8639 118.583 29.5855C119.011 29.0642 119.477 28.4364 119.793 27.8026C119.799 27.7907 119.81 27.7789 119.815 27.7611C119.832 27.7374 119.843 27.7137 119.86 27.6841C119.982 27.4945 120.159 27.3168 120.353 27.1688C120.653 26.9437 122.273 18.5917 122.573 17.0576C122.6 16.9095 122.556 16.7555 122.451 16.6488L121.613 15.8077C121.507 15.7011 121.369 15.6419 121.219 15.6419L121.23 15.636Z" fill="#7A563E"/>
<path d="M133.261 16.8757C133.4 16.5973 133.333 16.2537 133.1 16.0523L124.439 8.57111C124.284 8.51188 124.14 8.45857 123.985 8.39341L117.748 8.31048L119.296 1.40384C119.446 0.710804 118.941 0.0533103 118.253 0.0473869L111.285 0C110.996 0 110.808 0.313938 110.946 0.58049L111.823 2.29827C111.939 2.52928 111.723 3.57179 111.673 3.8265L110.752 8.22756L104.016 8.13871C103.55 8.13278 103.229 8.6185 103.401 9.06868L104.355 11.5091C104.444 11.7401 104.455 11.9889 104.394 12.2258L104.155 13.0966C104.039 13.529 104.355 13.9555 104.788 13.9555L109.559 13.9318L106.585 28.136C106.541 28.3492 106.435 28.5506 106.28 28.7046L105.664 29.3207C105.193 29.7945 105.514 30.6179 106.169 30.6179H111.135C111.251 30.6179 111.579 30.5468 111.878 30.4343C112.167 30.3276 112.666 29.9308 112.816 29.6465C113.049 29.1963 113.193 28.5921 113.221 28.4559L116.483 13.9021L121.799 13.8785C121.965 13.8785 122.12 13.9436 122.242 14.0562L123.968 15.7088C124.14 15.8746 124.212 16.1175 124.162 16.3544L120.739 31.7789C120.689 32.0099 120.567 32.2113 120.4 32.3653L114.985 38.0458C114.12 38.8277 114.88 40.2789 115.984 39.9531L125.621 34.5747C126.115 34.4325 126.437 33.9468 126.398 33.4196L125.832 32.2646C125.815 32.0573 125.854 31.8559 125.949 31.6722L133.25 16.8816L133.261 16.8757Z" fill="white"/>
<path d="M22.2584 17.8768C21.8534 16.8165 21.2598 16.0169 20.4886 15.5015C19.7506 15.0099 18.8407 14.7611 17.781 14.7611H12.5768C12.2383 14.7611 11.9665 15.0573 11.9665 15.4127V16.6981C11.9665 17.0594 12.2439 17.3496 12.5768 17.3496H18.0196C18.5245 17.3496 18.9739 17.5392 19.4288 17.9538C19.8283 18.4277 20.017 18.8956 20.017 19.3932V19.6183C20.017 19.6775 20.0059 19.796 19.9726 19.9974C19.8006 20.5897 19.5232 21.0162 19.1292 21.2887C18.8463 21.5374 18.3636 21.6618 17.6978 21.6618H12.5601C12.2217 21.6618 11.9498 21.958 11.9498 22.3134V27.1528C11.9498 27.5141 12.2272 27.8044 12.5601 27.8044H13.8307C14.1691 27.8044 14.441 27.5082 14.441 27.1528V24.428C14.441 24.3451 14.502 24.28 14.5797 24.28L17.8587 24.2385L18.3802 24.2207C18.5522 24.2207 18.7187 24.197 18.8574 24.1615C19.2901 24.0726 19.6952 23.9305 20.0613 23.7409C20.4275 23.5514 20.766 23.3026 21.06 23.0124C21.5483 22.5266 21.92 21.9817 22.1586 21.4071C22.3971 20.8326 22.5137 20.1988 22.5137 19.5294C22.5137 19.1385 22.4804 18.7535 22.4082 18.3921C22.375 18.2144 22.325 18.0367 22.2584 17.865V17.8768Z" fill="white"/>
<path d="M33.823 14.7611H32.5524C32.214 14.7611 31.9421 15.0572 31.9421 15.4126V20.0802C31.9421 20.8799 31.7757 21.5552 31.4483 22.0823C31.121 22.6036 30.6105 23.0005 29.9392 23.2552C29.7894 23.3085 29.6507 23.344 29.5175 23.3677C29.2512 23.4092 29.0404 23.4092 28.7741 23.3677C28.6465 23.3499 28.5078 23.3085 28.358 23.2552C27.6811 23.0005 27.1762 22.6036 26.8488 22.0764C26.5215 21.5492 26.355 20.874 26.355 20.0743V15.4067C26.355 15.0454 26.0776 14.7551 25.7447 14.7551H24.4742C24.1358 14.7551 23.8639 15.0513 23.8639 15.4067V19.8433C23.8639 20.714 23.936 21.4189 24.0858 21.9402C24.1469 22.1534 24.2079 22.343 24.2689 22.5147C24.3299 22.6924 24.4021 22.8524 24.4631 22.9471C24.5574 23.19 24.7128 23.4566 24.9347 23.7468C25.4951 24.4931 26.1331 25.0499 26.8322 25.4172C27.5313 25.7785 28.3136 25.9621 29.1569 25.9621C30.0002 25.9621 30.777 25.7785 31.4816 25.4172C32.1807 25.0559 32.8243 24.4931 33.3847 23.7527C33.5012 23.5987 33.5899 23.4506 33.6621 23.3144L33.8396 22.9768C33.9062 22.8405 33.9728 22.6865 34.0393 22.5207C34.1004 22.3548 34.167 22.1653 34.228 21.9461C34.3722 21.4308 34.4444 20.7259 34.4444 19.8492V15.4126C34.4444 15.0513 34.167 14.7611 33.8341 14.7611H33.823Z" fill="white"/>
<path d="M57.9868 17.8768C57.5818 16.8165 56.9882 16.0169 56.217 15.5015C55.479 15.0099 54.5691 14.7611 53.5094 14.7611H48.3052C47.9667 14.7611 47.6949 15.0573 47.6949 15.4127V16.6981C47.6949 17.0594 47.9723 17.3496 48.3052 17.3496H53.748C54.2529 17.3496 54.7023 17.5392 55.1572 17.9538C55.5567 18.4277 55.7454 18.8956 55.7454 19.3932V19.6183C55.7454 19.6775 55.7343 19.796 55.701 19.9974C55.529 20.5897 55.2516 21.0162 54.8576 21.2887C54.5747 21.5374 54.092 21.6618 53.4262 21.6618H48.2885C47.9501 21.6618 47.6782 21.958 47.6782 22.3134V27.1528C47.6782 27.5141 47.9556 27.8044 48.2885 27.8044H49.5535C49.892 27.8044 50.1638 27.5082 50.1638 27.1528V24.428C50.1638 24.3451 50.2249 24.28 50.3025 24.28L53.5815 24.2385L54.1031 24.2207C54.2751 24.2207 54.436 24.197 54.5858 24.1615C55.0185 24.0726 55.4236 23.9305 55.7897 23.7409C56.1559 23.5514 56.4944 23.3026 56.7884 23.0124C57.2767 22.5266 57.6484 21.9817 57.887 21.4071C58.1255 20.8326 58.2421 20.1988 58.2421 19.5294C58.2421 19.1385 58.2088 18.7535 58.1366 18.3921C58.1033 18.2204 58.0534 18.0427 57.9868 17.865V17.8768Z" fill="white"/>
<path d="M69.524 19.0792H65.0244C64.6873 19.0792 64.4141 19.3709 64.4141 19.7308V20.9925C64.4141 21.3523 64.6873 21.644 65.0244 21.644H69.524C69.861 21.644 70.1343 21.3523 70.1343 20.9925V19.7308C70.1343 19.3709 69.861 19.0792 69.524 19.0792Z" fill="white"/>
<path d="M69.5196 14.7493H65.5027C64.5872 14.7493 63.9769 14.8026 63.6607 14.9092C63.3222 14.9684 62.9671 15.0869 62.5954 15.2705C62.2237 15.4541 61.8353 15.7207 61.4469 16.0702C60.8089 16.6447 60.3317 17.2963 60.0377 18.013C59.7381 18.7298 59.5883 19.5117 59.5883 20.3469C59.5883 21.1287 59.727 21.8632 59.9988 22.5326C60.2762 23.2197 60.648 23.812 61.114 24.2977C61.5745 24.7775 62.1349 25.1803 62.7729 25.4883C63.0725 25.6364 63.4498 25.749 63.8826 25.8319C64.3153 25.9089 64.8313 25.9504 65.4194 25.9504H69.5251C69.8636 25.9504 70.1354 25.6542 70.1354 25.2988V24.0253C70.1354 23.6639 69.858 23.3737 69.5251 23.3737H65.192C64.8979 23.3737 64.6316 23.35 64.4041 23.3085C64.1766 23.2671 63.9825 23.2078 63.816 23.1308C63.6718 23.0716 63.5164 22.9768 63.3555 22.8643C63.2002 22.7517 63.0393 22.6155 62.8451 22.42C62.3291 21.7685 62.0739 21.0695 62.0739 20.335C62.0739 20.1277 62.1072 19.8789 62.1737 19.5531C62.4622 18.6883 62.8784 18.1019 63.4443 17.782C63.8382 17.4859 64.4374 17.3319 65.2253 17.3319H69.5307C69.8691 17.3319 70.141 17.0357 70.141 16.6803V15.4008C70.141 15.0395 69.8636 14.7493 69.5307 14.7493H69.5196Z" fill="white"/>
<path d="M75.2612 13.1736H78.3737C78.7122 13.1736 78.984 13.4698 78.984 13.8252V14.2931C78.984 14.6544 78.7066 14.9447 78.3737 14.9447H75.2612C74.9227 14.9447 74.6509 14.6485 74.6509 14.2931V13.8252C74.6509 13.4638 74.9227 13.1736 75.2612 13.1736Z" fill="white"/>
<path d="M81.4479 14.7611H80.1885C79.85 14.7611 79.5782 15.0572 79.5782 15.4126V20.0802C79.5782 20.8858 79.4117 21.5552 79.0844 22.0823C78.757 22.6036 78.2466 23.0005 77.5753 23.2552C77.4255 23.3085 77.2867 23.344 77.1536 23.3677C76.8873 23.4092 76.6709 23.4092 76.4101 23.3677C76.2825 23.3499 76.1438 23.3085 75.994 23.2552C75.3171 23.0005 74.8122 22.6036 74.4849 22.0764C74.1575 21.5492 73.9911 20.874 73.9911 20.0743V15.4067C73.9911 15.0454 73.7137 14.7551 73.3808 14.7551H72.1158C71.7774 14.7551 71.5055 15.0513 71.5055 15.4067V19.8433C71.5055 20.714 71.5776 21.4189 71.7274 21.9402C71.7884 22.1534 71.8495 22.343 71.9105 22.5147C71.9715 22.6924 72.0437 22.8524 72.1047 22.9471C72.199 23.19 72.3544 23.4566 72.5763 23.7468C73.1311 24.4931 73.7692 25.0499 74.4738 25.4172C75.1729 25.7785 75.9552 25.9621 76.793 25.9621C77.6307 25.9621 78.413 25.7785 79.1121 25.4172C79.8112 25.0559 80.4548 24.4931 81.0152 23.7468C81.1317 23.5928 81.2204 23.4447 81.2926 23.3144L81.4701 22.9768C81.5367 22.8405 81.6033 22.6865 81.6698 22.5207C81.7309 22.3548 81.7975 22.1653 81.8585 21.9461C82.0027 21.4308 82.0804 20.7259 82.0804 19.8492V15.4126C82.0804 15.0513 81.803 14.7611 81.4701 14.7611H81.4479Z" fill="white"/>
<path d="M46.3431 15.4008V25.3047C46.3431 25.666 46.0713 25.9621 45.7328 25.9621H44.4623C44.1238 25.9621 43.852 25.666 43.852 25.3047V17.4858C43.852 17.4503 43.8353 17.4088 43.8131 17.3792C43.7854 17.3496 43.7465 17.3496 43.7133 17.3377H42.3484H41.0723C39.5077 17.3377 38.2371 18.6883 38.2371 20.3586C38.2371 21.1938 38.5534 21.9461 39.0694 22.497C39.5854 23.0479 40.29 23.3796 41.0723 23.3796H42.4871C42.8255 23.3796 43.0974 23.6698 43.0974 24.0311V25.2928C43.0974 25.6541 42.8255 25.9503 42.4871 25.9503H41.1833C40.5341 25.9503 39.9349 25.8615 39.3912 25.6838C38.8419 25.5061 38.3315 25.2277 37.8821 24.8545C37.5547 24.582 37.2884 24.3155 37.0776 24.0667C36.8723 23.8179 36.7003 23.575 36.5782 23.3559C36.3175 22.8879 36.1122 22.4141 35.9735 21.9461C35.8348 21.4841 35.7682 20.9628 35.7682 20.3942V20.2106C35.7682 19.5294 35.8847 18.8719 36.1122 18.2558C36.3452 17.6398 36.7058 17.0416 37.1885 16.4907C37.4604 16.1827 37.7212 15.9339 37.9653 15.7503C38.2094 15.5666 38.4258 15.4304 38.62 15.3534C38.853 15.2112 39.2192 15.0572 39.6797 14.921C40.0958 14.7966 40.6839 14.7314 41.4662 14.7314H45.7328C46.0713 14.7314 46.3431 15.0276 46.3431 15.3889V15.4008Z" fill="white"/>
<path d="M10.4968 21.7505C10.4524 21.5077 10.3859 21.2589 10.2915 21.0042C9.98083 20.1927 9.40382 19.5826 8.57713 19.1798C8.55494 19.1679 8.53275 19.162 8.51055 19.1502C8.32746 19.0791 8.12772 19.0258 7.91689 18.9843C7.70051 18.9429 7.50077 18.9132 7.31213 18.8895C7.09575 18.8718 6.87937 18.854 6.66299 18.854H3.69469C3.35624 18.8599 3.08438 19.1561 3.08438 19.5174V20.9094C3.08438 21.2707 3.36179 21.561 3.69469 21.561H7.05692C7.24001 21.561 7.37871 21.5906 7.47858 21.6498C7.64503 21.7446 7.76709 21.8572 7.85031 21.9875C7.92244 22.1059 7.95573 22.2362 7.94463 22.3903L7.93354 22.562C7.80038 23.0359 7.52297 23.261 7.06801 23.261H3.66695C3.5005 23.261 3.3507 23.3321 3.23418 23.4565C3.11767 23.5809 3.05664 23.7467 3.05664 23.9185V25.3105C3.05664 25.6718 3.3396 25.962 3.67249 25.962H6.60751C6.92931 25.962 7.20117 25.9561 7.42865 25.9443C7.67277 25.9324 7.86141 25.9028 8.00566 25.8614C8.19985 25.814 8.38294 25.7488 8.56049 25.6718C8.73803 25.5948 8.89893 25.5 9.05428 25.3875C9.55917 25.0025 9.942 24.5641 10.1861 24.0843C10.4358 23.5986 10.5578 23.0537 10.5578 22.4791C10.5578 22.2422 10.5357 21.9993 10.4968 21.7565V21.7505Z" fill="white"/>
<path d="M10.3419 15.4066V16.692C10.3419 17.0533 10.07 17.3436 9.7316 17.3436H7.07954H5.34295C3.7728 17.3436 2.4967 18.706 2.4967 20.3823V25.2987C2.4967 25.66 2.22484 25.9502 1.8864 25.9502H0.610305C0.271863 25.9502 0 25.66 0 25.2987V20.3467C0 17.2607 2.3469 14.7551 5.23753 14.7551H8.68853C8.9271 14.7551 9.16013 14.7551 9.37651 14.7491H9.72605C9.8925 14.7669 10.0423 14.8143 10.1588 14.9387C10.2753 15.0631 10.3364 15.2289 10.3364 15.4007L10.3419 15.4066Z" fill="white"/>
</svg>
