<svg width="146" height="37" viewBox="0 0 146 37" fill="none" xmlns="http://www.w3.org/2000/svg">
<g clip-path="url(#clip0_1_2515)">
<path d="M15.3292 15.3597C15.3292 13.2784 16.9681 11.584 18.9831 11.584C20.9974 11.584 22.6363 13.2784 22.6363 15.3597C22.6363 17.4426 20.9972 19.1376 18.9831 19.1376C16.9679 19.1376 15.3292 17.4426 15.3292 15.3597ZM24.9749 15.3597C24.9749 11.9462 22.2857 9.16953 18.9831 9.16953C15.6796 9.16953 12.9922 11.9462 12.9922 15.3597C12.9922 18.7729 15.6796 21.5523 18.9831 21.5523C22.2857 21.5523 24.9749 18.7729 24.9749 15.3597ZM10.8081 25.0081C10.8081 24.669 10.667 24.3597 10.4502 24.1339C9.33529 22.9818 8.45122 21.6139 7.84854 20.1085C7.24587 18.603 6.93643 16.9895 6.93794 15.3603C6.93794 8.49863 12.3423 2.91453 18.9816 2.91453C25.624 2.91453 31.0276 8.49863 31.0276 15.3603C31.0276 18.7926 29.6765 21.9041 27.4947 24.1582L17.3226 34.6674L18.9806 36.3804L29.1584 25.8625C31.7576 23.1727 33.3651 19.461 33.3651 15.3607C33.3651 7.15333 26.9272 0.500488 18.9816 0.500488C11.0399 0.500079 4.59961 7.15313 4.59961 15.3603C4.59961 19.4574 6.21201 23.178 8.79957 25.8543C9.02149 26.082 9.31091 26.2149 9.63854 26.2149C9.94847 26.215 10.2457 26.0879 10.465 25.8616C10.6843 25.6353 10.8077 25.3283 10.8081 25.0081ZM26.1957 22.7861C28.0324 20.8804 29.1691 18.2554 29.1691 15.3603C29.1691 9.55633 24.5995 4.83481 18.9824 4.83481C13.3668 4.83481 8.79542 9.55633 8.79542 15.3603C8.79542 18.2554 9.9535 20.9059 11.7708 22.7861C11.9852 23.007 12.2813 23.1519 12.6096 23.1519C12.9197 23.1516 13.2171 23.0242 13.4364 22.7976C13.6557 22.571 13.779 22.2637 13.7791 21.9432C13.7791 21.5973 13.6366 21.2886 13.4137 21.0688C12.005 19.6011 11.1339 17.5839 11.1339 15.3603C11.1339 10.8883 14.6543 7.24926 18.9824 7.24926C23.311 7.24926 26.8339 10.8883 26.8339 15.3603C26.8339 17.596 25.9522 19.6224 24.5318 21.0911L14.3566 31.6039L16.0103 33.31L26.1957 22.7861Z" fill="#DA2031"/>
<path d="M76.7441 13.2474L78.8722 6.55615H79.9725L81.4713 11.0868H81.4895L82.9702 6.55615H84.0703L86.1895 13.2474H84.6256L83.4881 9.34738H83.4691L82.119 13.2474H80.8138L79.4637 9.34738H79.4455L78.3072 13.2474H76.7441Z" fill="#DA2031"/>
<path d="M89.9667 10.8192C89.9667 10.0737 89.5965 9.54779 88.986 9.54779C88.3755 9.54779 87.9962 10.0737 87.9962 10.8194C87.9962 11.5464 88.3755 12.1191 88.986 12.1191C89.5963 12.1191 89.9667 11.5462 89.9667 10.8192ZM86.5898 10.8194C86.5898 9.34754 87.5705 8.30518 88.986 8.30518C90.3824 8.30518 91.373 9.34754 91.373 10.8194C91.373 12.3202 90.3824 13.3619 88.986 13.3619C87.5705 13.3619 86.5898 12.3202 86.5898 10.8194ZM92.0593 10.8194C92.0593 9.34754 92.9757 8.30518 94.3721 8.30518C94.9545 8.30518 95.612 8.42974 96.1481 8.97424L95.2877 9.85379C95.0749 9.6247 94.7789 9.53838 94.4555 9.53838C93.8452 9.53838 93.4748 10.0737 93.4748 10.8194C93.4748 11.5652 93.845 12.1191 94.4555 12.1191C94.7787 12.1191 95.0751 12.0332 95.2877 11.8139L96.1481 12.6927C95.612 13.2374 94.9543 13.3617 94.3723 13.3617C92.9757 13.3617 92.0593 12.3204 92.0593 10.8194Z" fill="#DA2031"/>
<path d="M96.9648 8.42041H98.3149V10.246H98.5188L99.6201 8.42041H101.165L99.6662 10.8101L101.35 13.2477H99.7032L98.4636 11.4119H98.3151V13.2477H96.9648V8.42041Z" fill="#DA2031"/>
<path d="M105.051 10.8192C105.051 10.0737 104.681 9.54779 104.07 9.54779C103.46 9.54779 103.08 10.0737 103.08 10.8194C103.08 11.5464 103.46 12.1191 104.07 12.1191C104.681 12.1191 105.051 11.5462 105.051 10.8192ZM101.674 10.8194C101.674 9.34754 102.655 8.30518 104.07 8.30518C105.466 8.30518 106.457 9.34754 106.457 10.8194C106.457 12.3202 105.466 13.3619 104.07 13.3619C102.655 13.3619 101.674 12.3202 101.674 10.8194Z" fill="#DA2031"/>
<path d="M109.817 12.2344C110.197 12.2344 110.326 12.0339 110.326 11.814C110.326 11.5839 110.197 11.3548 109.817 11.3548H108.8V12.2344H109.817ZM109.567 10.418C109.91 10.418 110.178 10.2748 110.178 9.91175C110.178 9.54868 109.91 9.43373 109.567 9.43373H108.799V10.418H109.567ZM107.449 13.2477V8.42041H109.864C110.78 8.42041 111.575 8.77407 111.575 9.73032C111.575 10.1701 111.242 10.552 110.881 10.6569V10.6763C111.426 10.8298 111.769 11.2311 111.769 11.8234C111.769 12.531 111.261 13.2477 110.067 13.2477H107.449Z" fill="#DA2031"/>
<path d="M112.447 10.8195C112.447 9.34782 113.364 8.30566 114.76 8.30566C115.342 8.30566 116 8.43003 116.536 8.97453L115.676 9.85407C115.463 9.62498 115.167 9.53866 114.843 9.53866C114.233 9.53866 113.863 10.074 113.863 10.8197C113.863 11.5655 114.233 12.1194 114.843 12.1194C115.167 12.1194 115.463 12.0335 115.676 11.8142L116.536 12.693C116 13.2377 115.342 13.362 114.76 13.362C113.364 13.362 112.447 12.3205 112.447 10.8195Z" fill="#DA2031"/>
<path d="M117.352 8.42033H118.702V10.2459H118.906L120.007 8.42033H121.552L120.053 10.81L121.736 13.2476H120.09L118.85 11.4118H118.702V13.2476H117.352V8.42033ZM122.376 8.42033H123.727V11.1441H123.746L125.531 8.42033H126.696V13.2476H125.346V10.5226H125.328L123.551 13.2472H122.376V8.41992V8.42033Z" fill="#DA2031"/>
<path d="M128.56 6.95794L129.264 6.24121C129.393 6.49853 129.652 6.85219 130.087 6.85219C130.641 6.85219 130.836 6.49832 130.975 6.24121L131.641 6.95794C131.465 7.33021 130.947 7.91317 130.114 7.91317C129.291 7.91317 128.773 7.33021 128.56 6.95794ZM127.996 8.42044H129.346V11.1442H129.365L131.15 8.42044H132.316V13.2469H130.966V10.5228H130.947L129.171 13.2467H127.996V8.42044Z" fill="#DA2031"/>
<path d="M78.0384 18.6477H78.9542L80.1024 21.6297H80.1196L81.2769 18.6475H82.1644L83.3581 23.4747H82.0078L81.4988 21.0656H81.4806L80.5181 23.4749H79.6388L78.7232 21.0562H78.705L78.178 23.4749H76.873L78.0386 18.6477H78.0384Z" fill="#DA2031"/>
<path d="M86.9575 20.5117C86.9021 19.9766 86.6244 19.6424 86.1063 19.6424C85.6345 19.6424 85.3392 20.0149 85.2558 20.5117H86.9575ZM83.8125 21.0564C83.8125 19.5845 84.7651 18.5327 86.1154 18.5327C87.3922 18.5327 88.373 19.3366 88.373 21.1808V21.5148H85.2743C85.3766 22.1362 85.9038 22.3373 86.3383 22.3373C86.7639 22.3373 87.1434 22.1268 87.3091 21.8789L88.1786 22.777C87.6144 23.3404 86.9668 23.5893 86.1906 23.5893C84.9692 23.5893 83.8127 22.6909 83.8127 21.0564M90.1705 19.8614H88.8013V18.6479H93.0005L92.5666 19.8614H91.5208V23.4743H90.1707V19.8614H90.1705Z" fill="#DA2031"/>
<path d="M96.0191 22.3279C96.6393 22.3279 97.0732 21.7834 97.0732 21.0376C97.0732 20.3303 96.6393 19.7755 96.0191 19.7755C95.3994 19.7755 94.956 20.3303 94.956 21.0376C94.956 21.7834 95.3994 22.3279 96.0191 22.3279ZM95.0103 25.2426H93.6602V18.6479H95.0103V19.1259H95.0293C95.2332 18.8678 95.6305 18.5327 96.3431 18.5327C97.564 18.5327 98.4795 19.5751 98.4795 21.047C98.4795 22.5283 97.564 23.5895 96.3431 23.5895C95.6305 23.5895 95.233 23.2553 95.0293 22.9969H95.0103V25.2426Z" fill="#DA2031"/>
<path d="M102.543 21.047C102.543 20.3012 102.173 19.7753 101.562 19.7753C100.952 19.7753 100.572 20.3012 100.572 21.047C100.572 21.7739 100.952 22.3467 101.562 22.3467C102.173 22.3467 102.543 21.7739 102.543 21.047ZM99.166 21.047C99.166 19.5751 100.147 18.5327 101.562 18.5327C102.959 18.5327 103.949 19.5751 103.949 21.047C103.949 22.5477 102.959 23.5895 101.562 23.5895C100.147 23.5895 99.166 22.5477 99.166 21.047Z" fill="#DA2031"/>
<path d="M104.941 18.6475H109.012V23.4747H107.661V19.861H106.292V23.4747H104.941V18.6475Z" fill="#DA2031"/>
<path d="M113.363 21.047C113.363 20.3012 112.994 19.7753 112.382 19.7753C111.772 19.7753 111.393 20.3012 111.393 21.047C111.393 21.7739 111.772 22.3467 112.382 22.3467C112.994 22.3467 113.363 21.7739 113.363 21.047ZM109.986 21.047C109.986 19.5751 110.967 18.5327 112.382 18.5327C113.78 18.5327 114.77 19.5751 114.77 21.047C114.77 22.5477 113.78 23.5895 112.382 23.5895C110.967 23.5895 109.986 22.5477 109.986 21.047Z" fill="#DA2031"/>
<path d="M115.316 23.4747V22.4324C115.363 22.452 115.465 22.48 115.548 22.48C115.9 22.48 115.983 22.2415 116.056 21.3908C116.187 19.6514 116.187 18.6475 116.187 18.6475H119.942V23.4747H118.61V19.8618H117.37C117.352 20.2249 117.361 20.6741 117.315 21.2861C117.214 22.7766 116.991 23.5701 115.835 23.5701C115.566 23.5701 115.316 23.4747 115.316 23.4747Z" fill="#DA2031"/>
<path d="M121.248 18.6479H122.598V21.3716H122.617L124.402 18.6479H125.568V23.4751H124.217V20.7502H124.199L122.423 23.4747H121.248V18.6475V18.6479Z" fill="#DA2031"/>
<path d="M127.764 19.8614H126.395V18.6479H130.594L130.16 19.8614H129.114V23.4743H127.764L127.764 19.8614ZM133.935 20.5119C133.88 19.9766 133.602 19.6426 133.084 19.6426C132.613 19.6426 132.317 20.0149 132.233 20.5119H133.935ZM130.79 21.0564C130.79 19.5845 131.743 18.5327 133.094 18.5327C134.37 18.5327 135.351 19.3366 135.351 21.1808V21.5148H132.252C132.354 22.1362 132.881 22.3373 133.316 22.3373C133.742 22.3373 134.121 22.1268 134.287 21.8789L135.157 22.777C134.593 23.3404 133.944 23.5893 133.167 23.5893C131.947 23.5893 130.79 22.6909 130.79 21.0564" fill="#DA2031"/>
<path d="M136.324 18.6475H137.675V20.4252H139.201V18.6475H140.552V23.4747H139.202V21.6481H137.675V23.4747H136.325V18.6475H136.324Z" fill="#DA2031"/>
<path d="M52.7976 17.9962H51.9826L52.7761 15.6501L55.0526 19.5219L57.3292 15.6498L58.1236 17.9962H57.3078V19.4153H62.7518V17.9962H61.6943L58.089 8.58301L55.0526 14.0816L52.0167 8.58301L48.4112 17.9962H47.3555V19.4153H52.7978L52.7976 17.9962Z" fill="#DA2031"/>
<path d="M69.4358 15.3612C69.4358 7.15382 62.9973 0.500977 55.0538 0.500977C47.1116 0.500977 40.6719 7.15382 40.6719 15.3612C40.6698 17.3097 41.0397 19.2395 41.7604 21.0401C42.4811 22.8406 43.5385 24.4766 44.872 25.8544C44.9815 25.9693 45.1122 26.0605 45.2562 26.1226C45.4003 26.1847 45.5549 26.2163 45.711 26.2158C46.356 26.2158 46.879 25.6738 46.879 25.009C46.879 24.6707 46.7394 24.3612 46.5217 24.1346C45.4069 22.9825 44.523 21.6146 43.9203 20.1092C43.3177 18.6037 43.0082 16.9903 43.0096 15.3612C43.0096 8.50034 48.4122 2.91625 55.0538 2.91625C61.6955 2.91625 67.099 8.50034 67.099 15.3612C67.099 18.7935 65.7472 21.905 63.5654 24.1575L53.3943 34.667L55.0515 36.3801L65.2301 25.8636C67.8291 23.1738 69.436 19.4621 69.436 15.361" fill="#DA2031"/>
</g>
<defs>
<clipPath id="clip0_1_2515">
<rect width="136" height="36" fill="white" transform="translate(4.59961 0.5)"/>
</clipPath>
</defs>
</svg>
